<?xml version="1.0" encoding="UTF-8" standalone="no"?>
<!-- Created with Inkscape (http://www.inkscape.org/) -->
<svg xmlns:inkscape="http://www.inkscape.org/namespaces/inkscape" xmlns:rdf="http://www.w3.org/1999/02/22-rdf-syntax-ns#" xmlns="http://www.w3.org/2000/svg" xmlns:sodipodi="http://sodipodi.sourceforge.net/DTD/sodipodi-0.dtd" xmlns:ns1="http://sozi.baierouge.fr" xmlns:cc="http://creativecommons.org/ns#" xmlns:xlink="http://www.w3.org/1999/xlink" xmlns:dc="http://purl.org/dc/elements/1.1/" id="svg2" sodipodi:docname="flamethrowerstream.svg" viewBox="0 0 3283.1 1343.6" version="1.1" inkscape:version="0.48.5 r10040">
  <sodipodi:namedview id="namedview4" fit-margin-left="0" inkscape:zoom="0.19875" borderopacity="1" inkscape:current-layer="svg2" inkscape:cx="1577.1027" inkscape:cy="671.02918" inkscape:window-maximized="1" showgrid="false" fit-margin-right="0" bordercolor="#666666" inkscape:window-x="-4" guidetolerance="10" objecttolerance="10" inkscape:window-y="-4" fit-margin-bottom="0" inkscape:window-width="1280" inkscape:pageopacity="0" inkscape:pageshadow="2" pagecolor="#ffffff" gridtolerance="10" inkscape:window-height="941" fit-margin-top="0"/>
  <g id="g3011">
    <path id="path3036" d="m203.57 699.33s24.904 96.06 56.924 96.06 138.75 3.5578 156.54 14.231c17.789 10.673 53.367 28.462 53.367 28.462l35.578 49.809s-49.809-17.789 17.789-24.904c67.598-7.1155 85.386 32.02 120.96 39.135 35.578 7.1155 3.5578 7.1155 64.04 7.1155s88.944 0 113.85 7.1155c24.904 7.1155 53.367 10.673 39.136 21.347-14.231 10.673-21.347 14.231-21.347 14.231s10.673 17.789 53.366-3.5578 46.251-24.904 92.502-14.231 64.04 42.693 110.29 42.693c46.251 0 106.73 21.347 106.73 21.347l21.347 32.02s-49.809-28.462 10.673-24.904c60.482 3.5578 67.598-24.904 124.52 0 56.924 24.904 49.809 60.482 103.18 78.271 53.367 17.789 96.06 7.1156 117.41 24.904 21.347 17.789 28.462 46.251 92.502 24.904s53.366-32.02 88.944-24.904c35.578 7.1156 21.347 17.789 64.04 3.5578s53.366-28.462 53.366-28.462 14.231-10.673 39.136 32.02c24.904 42.693 14.231 46.251 60.482 74.713s0 46.251 53.366 81.829c53.367 35.578 71.155 39.135 131.64 32.02 60.482-7.1156 78.271-24.904 113.85-32.02 35.578-7.1156 96.06 7.1155 96.06 7.1155s-28.462-7.1155-10.673-39.136-10.673-39.136 64.04-17.789 88.944 28.462 152.98 24.904c64.04-3.5578 24.904-10.673 92.502-10.673s92.502 0 124.52 3.5578c32.02 3.5578 67.598-17.789 88.944 0 21.347 17.789 28.462 39.136 81.829 35.578 53.367-3.5577 64.04-14.231 92.502-28.462s14.231-28.462 53.367-32.02c39.136-3.5577 85.386-67.598 85.386-67.598l3.5577 24.904s14.231-7.1156 32.02-21.347 3.5577-17.789 24.904-67.598l21.347-49.809s-17.789-96.06-49.809-131.64c-32.02-35.578-67.598-53.367-103.18-71.155-35.578-17.789-67.598-42.693-60.482-71.155 7.1155-28.462 42.693-96.06 21.347-163.66-21.347-67.598-21.347-71.155-46.251-113.85-24.904-42.693-64.04-74.713-103.18-85.386-39.136-10.673-71.155-3.5578-99.618-21.347-28.462-17.789-49.809-35.578-74.713-28.462-24.904 7.1155 14.231 10.673-10.673 28.462s-49.809 42.693-49.809 42.693 46.251-7.1155 35.578 10.673c-10.673 17.789-32.02 81.829-78.271 85.386-46.251 3.5578-28.462 21.347-92.502-28.462s-92.502-42.693-138.75-96.06c-46.251-53.367-85.386-53.367-85.386-53.367s32.02 32.02-14.231 17.789-71.155-28.462-117.41-53.367c-46.251-24.904-85.386-49.809-78.271-60.482 7.1155-10.673 7.1155-21.347-7.1156-46.251-14.2-24.88-128.1-124.49-138.7-138.72-10.7-14.235-32.1-53.37-32.1-53.37h-56.924s46.251 3.5577 32.02 39.135c-14.231 35.578-32.02 56.924-32.02 56.924s-32.02 10.673-39.135 35.578c-7.1156 24.904-7.1156 32.02 14.231 67.598s7.1156 42.693-3.5577 56.924-28.462-3.5578-10.673 32.02 32.02 53.367 17.789 74.713c-14.231 21.347-10.673 71.155-46.251 46.251s-24.904-14.231-17.789-64.04c7.1155-49.809 3.5577-17.789-14.231-53.367s-32.02 0-24.904-56.924c7.1155-56.924 3.5578-106.73-24.904-106.73s-10.673 21.347-78.271 7.1155c-67.598-14.231-99.618-3.5577-99.618-3.5577l3.5578 64.04s53.366 17.789-14.231 0c-67.598-17.789-74.713-7.1155-81.829-28.462-7.1156-21.347-35.578-17.789-35.578-17.789s49.809 17.789 32.02 32.02-53.366 24.904-71.155 35.578c-17.789 10.673-46.251 7.1155-46.251-10.673 0-17.789-28.462-39.135-28.462-39.135s-35.578-46.251-49.809-10.673 24.904 35.578-17.789 56.924c-42.693 21.347-56.924 0-81.829 32.02-24.904 32.02 14.231 7.1155-56.924 39.135s-71.155 35.578-88.944 24.904c-17.789-10.673-42.693-3.5578-3.5577 14.231s35.578 24.904 32.02 35.578c-3.5578 10.673-21.347 32.02 46.251 14.231s103.18-42.693 110.29-17.789c7.1155 24.904 28.462 42.693-3.5578 53.367-32.02 10.673-64.04-24.904-67.598 3.5578-3.5578 28.462-67.598 21.347 32.02 42.693 99.618 21.347 113.85 35.578 156.54 21.347 42.693-14.231 106.73-56.924 92.502-10.673-14.231 46.251-24.904 21.347-74.713 42.693-49.809 21.347-17.789 35.578-74.713 32.02-56.924-3.5578-60.482-21.347-60.482-21.347s-3.5578-10.673-42.693 0 0-17.789-71.155 24.904-46.251 56.924-78.271 42.693-21.347-24.904-53.367-17.789c-32.02 7.1155 3.5578 21.347-39.135 3.5578s-81.829-35.578-142.31-7.1155c-60.482 28.462-53.367 46.251-71.155 32.02-17.789-14.231-17.789-28.462-78.271-39.135s-35.578-32.02-106.73-10.673c-71.155 21.347-56.924 56.924-81.829 42.693-24.904-14.231-24.904-32.02-24.904-32.02s-21.347-17.789-35.578 7.1155-3.5578 32.02-64.04 32.02-181.45 56.924-181.45 56.924z" style="opacity:.83333;stroke:#800000;stroke-width:4;fill:#ff0000" inkscape:connector-curvature="0"/>
    <path id="path3032" d="m36.495 587.48s60.143 94.881 87.267 107.59c27.125 12.712 77.757 41.767 77.757 50.847 0 9.0798-5.4249 23.607-5.4249 23.607s37.974-21.792 61.482 1.816c23.508 23.607 41.591 32.687 68.715 30.871 27.125-1.816 32.549-5.4479 50.632 7.2638s1.8083 7.2638 41.591 12.712c39.783 5.4479 66.907 18.16 83.182 23.607 16.275 5.4479 77.757-1.816 112.11 10.896 34.358 12.712 108.5 54.479 132.01 47.215 23.508-7.2638 77.757-19.976 112.11-9.0798 34.358 10.896 34.358 10.896 74.14 21.792 39.783 10.896 269.44 12.712 282.1 21.792 12.658 9.0798 27.124 43.583 27.124 43.583s-14.466 5.4479-7.2332 9.0798c7.2332 3.6319 0-16.344 23.508 3.6319s34.358 39.951 56.057 39.951c21.7 0 32.549 3.6319 39.783 7.2637 7.2332 3.632 27.125 7.2639 59.674 7.2639 32.55 0 57.866 14.528 61.482 19.976 3.6166 5.4479-18.083 5.4479-1.8083 16.344s-1.8083-12.712 39.783 0 59.674 12.712 66.907 12.712c7.2333 0 39.783 12.712 48.824 5.4479 9.0416-7.2638-1.8082-27.239 7.2333-27.239 9.0416 0 9.0416 14.528 39.783 1.8159s10.85-32.687 66.907-41.767c56.057-9.0798 144.66 10.896 151.9 43.583 7.2331 32.687 1.8083 41.767 32.549 61.743s1.8083 32.687 36.166 61.743c34.358 29.055 36.166 30.871 52.441 39.951 16.275 9.0798 27.124 12.712 54.249 41.767 27.124 29.056 9.0416 21.792 63.291 19.976s68.716-5.448 95.84 10.896c27.125 16.344 27.125 23.608 27.125 23.608s12.658-9.0798 0-34.503-37.974-19.976-25.316-32.687c12.658-12.712 14.466 9.0798 18.083-19.976 3.6165-29.055-9.0417-34.503 5.4248-54.479s21.7-74.454 48.824-47.215-14.466 12.712 36.166 39.951 18.083 16.344 86.798 14.528c68.716-1.816 56.057 0 113.92 5.4478 57.866 5.4479 39.783-19.976 90.415-3.6318s-3.6166 19.975 79.565 19.975 121.16-5.4477 141.05 0c19.891 5.448 115.73-54.479 193.49-54.479 77.757 0 65.099 21.791 95.84-9.08s0-38.135 39.783-41.767c39.783-3.6319 48.824-21.791 48.824-1.8159s-16.275 14.528 3.6167 38.135c19.891 23.607 14.466 27.239 14.466 38.135s18.083 25.424 18.083 25.424-9.0414 0 0-27.24c9.0416-27.239 25.316 0 7.2333-49.031s-23.508-16.344-23.508-61.743 27.124-43.583-7.2333-94.43c-34.358-50.847-21.7-47.215-50.632-78.086-28.933-30.871-3.6166-16.344-56.057-43.583-52.441-27.239-65.099-38.135-72.332-61.743-7.2332-23.607-25.316-19.976-16.275-45.399 9.0416-25.423 18.083-10.896 36.166-41.767s12.658-7.2638 18.083-34.503c5.4249-27.239 10.85-27.239 5.4249-47.215-5.4249-19.976-1.8083-1.816-14.466-23.607-12.658-21.792 3.6166-14.528-14.466-41.767s-21.7-18.16-37.974-38.135c-16.275-19.976 16.275 10.896-18.083-47.215s-36.166-59.927-36.166-59.927 5.4249-19.976-41.591-29.055c-47.016-9.0798-39.783-5.4479-54.249-16.344s-36.166-10.896-36.166-10.896l14.466-12.712s-21.7-9.0798-37.974 1.816c-16.275 10.896-25.316 18.16-25.316 18.16l-21.7 1.816v18.16s-9.0416-3.6319-19.891 1.816c-10.85 5.4479-28.933 25.423-28.933 25.423l-5.4248-5.4479s-16.275 18.16-10.85 23.607c5.4248 5.4479-7.2333 19.976-7.2333 19.976v27.239l-23.508 3.6319s-25.54-2.2485-37.048-2.2485-8.9505 10.273-14.065 23.113c-5.1148 12.841-15.344-6.4204-17.901-11.557-2.5572-5.1363 0-2.5682-6.3933 1.2841-6.3932 3.8522 7.672 26.966 7.672 26.966s-2.5573 6.4204-17.901-1.2841 2.5574-14.125 2.5574-14.125-19.18-3.8522-34.524-6.4204-7.672-2.5682-11.508-21.829c-3.8359-19.261-3.8359-23.113-11.508-39.806-7.672-16.693 6.3933-11.557-2.5574-14.125-8.9506-2.5682-12.787 0-26.852-6.4204s-12.787-5.1363-30.688-28.25c-17.901-23.113-1.2788-8.9886-5.1147-11.557-3.836-2.5681-17.901 0-34.524-12.841s3.836-6.4204 3.836-6.4204-30.688-1.2841-44.753 2.5682c-14.065 3.8522-16.623-2.5682-21.737-15.409-5.1147-12.841-5.1147 3.8522-19.18 10.273-14.065 6.4204-12.787-21.829-16.623-21.829-3.8359 0-17.901 17.977-21.737 24.397-3.8359 6.4204-24.294-5.1363-42.196-10.273-17.901-5.1363-6.3933-15.409-7.672-25.682-1.2786-10.273-10.229-3.8522-10.229-3.8522l-17.901-34.67-8.9506 3.8522s-10.229 7.7045-24.295 2.5682c-14.065-5.1363-20.459-10.273-17.901-15.409 2.5573-5.1363-35.803-29.534-35.803-29.534l-3.8359 24.397-11.508-2.5682s0-14.125-24.295-10.273c-24.295 3.8522-3.836 0-24.295-12.841s-3.836-7.7045-5.1146-29.534c-1.2787-21.829-3.836-1.2841-7.672-7.7045s-1.2787-7.7045 10.229-15.409 0 0 0-6.4204 5.1146-3.8522 15.344-16.693 1.2787-15.409-3.836-29.534c-5.1146-14.125-2.5573-6.4204-15.344-23.113s0-5.1364-11.508-41.09-10.229-15.409-20.459-24.397c-10.229-8.9885 0-11.557-6.3933-33.386-6.3934-21.829-23.016-12.841-40.917-10.273-17.901 2.5682-12.787 0-20.459-2.5681-7.6721-2.5681-14.065 1.2841-20.459 6.4204-6.3933 5.1364-11.508 8.9886-33.245 14.125s-15.344 11.557-25.573 34.67-29.409 5.1363-34.524 3.8522c-5.1147-1.2841-20.459-11.557-20.459-11.557s-5.1146 10.273-8.9506 38.522c-3.836 28.25 1.2787 10.273 29.409 37.238 28.131 26.966 10.229 21.829 10.229 21.829s1.2786 3.8522-1.2787 28.25c-2.5573 24.397 5.1146 8.9885 23.016 15.409 17.901 6.4204 6.3934-1.2841 21.737 25.682s0 1.2841-5.1145 20.545c-5.1148 19.261 5.1145 10.273 16.623 32.102s-3.836 7.7045-21.737 20.545c-17.901 12.841-12.786 24.397-17.901 86.033-5.1145 61.636-14.065 2.5682-38.36-30.818s12.787-33.386 24.294-48.795c11.508-15.409 10.229-24.397 10.229-24.397s-6.3933-2.5682-11.508-2.5682 0 1.2841-17.901 8.9885c-17.901 7.7045-3.8358 3.8522-16.623 33.386s-14.065-1.2841-28.13 2.5682c-14.065 3.8522-14.065 17.977-16.623 42.375-2.5574 24.397-2.5574 10.273-21.737 19.261-19.18 8.9885 6.3934 8.9885 15.344 11.557 8.9506 2.5682 17.901-2.5682 33.245-23.113s17.901-2.5682 34.524 26.966-7.6719 25.682-15.344 23.113c-7.672-2.5682-14.065 3.8522-29.409 20.545s-7.672 10.273-31.967 7.7045c-24.294-2.5682-16.623-6.4204-26.852 7.7045s-7.6719 7.7045-31.967-7.7045c-24.294-15.409-10.229-14.125 2.5573-28.25 12.787-14.125 6.3933-12.841 2.5575-34.67-3.8361-21.829-6.3934-17.977 0-51.363 6.3932-33.386 33.245-25.682 33.245-25.682s-21.737-14.125-37.081-7.7045c-15.344 6.4204-10.229 25.682-28.131 44.943-17.901 19.261-12.787-6.4204-12.787-15.409 0-8.9885 7.672-14.125 16.623-24.397 8.9506-10.273 16.622-30.818 26.852-78.329 10.229-47.511 29.409-29.534 44.753-34.67 15.344-5.1363 29.409-5.1363 44.753-25.682 15.344-20.545 20.459-29.534 20.459-29.534s-19.18-2.5682-33.245 5.1363-21.737 1.2841-38.36-12.841c-16.622-14.125-8.9505-5.1364-10.229-26.966-1.2787-21.829-21.737-17.977-37.081-20.545-15.344-2.5681-14.065 11.557-34.524 6.4204-20.459-5.1363-28.131-1.2841-34.524 0-6.3932 1.2841-24.294 8.9885-35.802 8.9885s-14.065-21.829-14.065-21.829l-23.016 65.488-24.294-19.261s0 25.682 11.508 39.806c11.508 14.125 10.229 25.682 3.8359 32.102-6.3933 6.4204-14.065 5.1363-17.901 29.534-3.836 24.397-23.016 0-34.524-8.9885s-12.787-1.2841-28.131 7.7045c-15.344 8.9885-25.573 5.1363-48.589-7.7045s-28.131 15.409-58.819 51.363-16.623 0-71.605-46.227-11.508-24.397-3.8359-48.795c7.672-24.397 20.459 6.4204 20.459 6.4204s3.8359-14.125-10.229-48.795-29.409-12.841-56.261 12.841 0 23.113 0 23.113 17.901 1.2841 16.623 7.7045c-1.2786 6.4204-19.18 17.977-43.474 26.966-24.295 8.9886-15.344 3.8522-19.18 24.397-3.8359 20.545-66.49 61.636-66.49 61.636s30.688 8.9885 49.868 5.1363 25.573-41.09 43.474-56.499 19.18 20.545 43.474 25.682c24.294 5.1363 49.868 37.238 25.573 29.534-24.294-7.7045-40.917 29.534-65.212 66.772-24.294 37.238-26.852 20.545-61.376 28.25-34.524 7.7045 1.2786 7.7045 28.131 10.273 26.852 2.5682 14.065 7.7045 19.18 19.261 5.1146 11.557 47.31-3.8522 48.589-29.534 1.2787-25.682 16.623-23.113 61.376-23.113s-8.9506 14.125 20.459 11.557c29.409-2.5682 12.787 0 44.753 5.1363s7.672 12.841 39.638 14.125c31.967 1.2841 15.344 7.7045 14.065 30.818-1.2787 23.113 2.5573 50.079-7.672 64.204s-5.1147-8.9886-12.787-5.1363c-7.672 3.8522-5.1147 21.829-3.8361 41.09 1.2787 19.261 1.2787 42.375-3.8359 44.943-5.1147 2.5682-29.409-14.125-39.639-29.534-10.229-15.409 0-19.261 0-19.261s-42.196-1.2841-57.54 0-15.344 48.795-30.688 60.352-21.737 3.8522-34.524-2.5682-20.459 0-48.589 2.5682c-28.131 2.5682 8.9506 3.8522 12.787 8.9885 3.836 5.1363 12.787 20.545-14.065 30.818s-30.688-10.273-33.245-26.966c-2.5573-16.693-21.737-29.534-62.654-41.09-40.917-11.557-24.295-24.397-44.753-48.795-20.459-24.397-37.081 6.4204-44.753 16.693-7.6721 10.273-7.6721-2.5682-7.6721-2.5682s3.836 12.841 3.836 25.682-10.229 71.908-21.737 82.181-63.933 7.7045-92.064-15.409c-28.131-23.113-5.1146-6.4204-29.409-28.25-24.295-21.829 0-15.409 0-15.409s-10.229-7.7045-24.295-21.829c-14.065-14.125-14.065-12.841-29.409-15.409-15.344-2.5682-56.261 33.386-72.884 42.375-16.623 8.9885-5.1147-10.273-5.1147-10.273s-26.852 25.682-38.36 33.386c-11.508 7.7045 14.065 43.659 5.1146 43.659-8.9506 0-31.967-3.8522-76.72-11.557-44.753-7.7045-28.131-16.693-29.409-32.102-1.2786-15.409-24.295-28.25-43.475-43.659s-79.277-20.545-116.36-24.397c-37.081-3.8522-19.18 6.4204-35.803 24.397s-5.1146 12.841-23.016 23.113c-17.901 10.273-24.295 2.5682-47.311-5.1363s-11.508-7.7045-11.508-7.7045l-5.1146 12.841s-35.803-3.8522-57.54-2.5682c-21.737 1.2841-51.147 5.1363-77.998 6.4204-26.852 1.2841-117.33-12.002-160.81 9.8274-43.475 21.829-8.2496-4.7692-8.2496-4.7692z" sodipodi:nodetypes="csscsssssssssscssscssssscsssssssssscsssssssssscsssssscssssssssssssssscssccscccsccccccsccscscsssssscscssssssscccsscccsssssssssssssssssccsscssscssssscssssssssssssssscscssssssscssssssscccssssssssscsscssscssssssssssssssssssscsssssssssccsssscssscsssssssssccsssc" style="opacity:.65833;stroke:#ff2a2a;stroke-width:4.0747;fill:#ff6600" inkscape:connector-curvature="0"/>
    <path id="path3034" d="m2679.8 505.43s24.904-16.01 0 0z" style="stroke:#d45500;stroke-width:4;fill:#d45500" inkscape:connector-curvature="0"/>
    <path id="path3009" d="m1666.9 270.83s-1.2578-12.579-26.415-26.415-21.384 8.805-28.931 28.931c-7.5472 20.126-1.2579 2.5157-11.321-2.5157s-20.126 6.2893-20.126 6.2893-13.836-1.2579-28.931-15.094c-15.094-13.836-32.704 7.5472-49.057 15.094-16.352 7.5472-8.805 0-21.384-2.5157s-27.673 38.994-27.673 38.994 0 3.7736 5.0315 11.321c5.0314 7.5472-5.0315 32.704-8.805 40.252-3.7736 7.5472-15.094-2.5157-11.321-17.61 3.7736-15.094-7.5472-1.2579-7.5472-1.2579s-3.7736 7.5472-8.805 13.836c-5.0315 6.2893-5.0315 21.384 0 35.22 5.0314 13.836 13.836 1.2579 25.157-6.2893s6.2893-5.0314 17.61 5.0314 0 10.063 10.063 20.126 8.805 1.2579 16.352-1.2579c7.5472-2.5157 30.189-5.0314 30.189-5.0314s-1.2579 7.5472-11.321 18.868-6.2893 8.805-10.063 30.189c-3.7736 21.384 0 3.7736 2.5157 21.384 2.5158 17.61 0 25.157-2.5157 38.994-2.5157 13.836-16.352 8.805-13.836 2.5157 2.5158-6.2893-8.805-12.579-8.805-7.5472 0 5.0314 0 3.7736-17.61 21.384s-1.2578 10.063 10.063 36.478 13.836 36.478 13.836 36.478-16.352-7.5472-27.673-12.579c-11.321-5.0314-18.868-1.2579-32.704-3.7736s2.5157-12.579 5.0314-21.384-2.5157-25.157-16.352-40.252c-13.836-15.094-10.063 0-35.22 17.61s-5.0315 1.2579-15.094 8.805c-10.063 7.5472-1.2578 26.415-1.2578 33.962 0 7.5472-8.8051 3.7736-21.384 11.321-12.579 7.5472-15.094 8.805-15.094 8.805s-28.931-15.094-52.83-3.7736c-23.899 11.321-12.579 23.899-3.7736 18.868 8.805-5.0314 18.868 6.2893 18.868 6.2893s-5.0314 5.0314-10.063 8.805c-5.0314 3.7736-17.61 17.61-18.868 5.0314-1.2578-12.579 3.7736-6.2893-7.5471-10.063-11.321-3.7736-2.5158-7.5472-2.5158-7.5472s5.0315-13.836-1.2578-25.157-17.61-3.7736-27.673-3.7736-5.0314-3.7736-15.094-15.094c-10.063-11.321-8.8051-7.5472-16.352-7.5472-7.5472 0-8.8051-12.579-8.8051-21.384s-6.2893-3.7736-27.673-7.5472-16.352-11.321-15.094-25.157c1.2579-13.836-7.5471-7.5472-7.5471-7.5472s-5.0315 8.805-21.384-3.7736-6.2893 0-8.805 7.5472-2.5157 0-10.063 6.2893c-7.5472 6.2893-3.7736 6.2893-1.2579 12.579 2.5158 6.2893 3.7736 6.2893-5.0314 21.384-8.805 15.094-5.0315 5.0314-5.0315 15.094s6.2894 15.094 6.2894 21.384c0 6.2893-5.0315 6.2893-12.579 12.579-7.5471 6.2893-2.5157 7.5472-3.7735 16.352-1.2579 8.805-5.0315 2.5157-12.579 6.2893-7.5471 3.7736-3.7735 13.836-10.063 18.868-6.2893 5.0314-1.2578 0-21.384 0s-11.321 3.7736-17.61 8.805c-6.2893 5.0314-6.2893 1.2579-13.836-8.805-7.5472-10.063 2.5157-35.22 2.5157-35.22s-6.2893 3.7736-11.321 8.805c-5.0314 5.0314-16.352 10.063-25.157 11.321-8.805 1.2579-3.7736-5.0314-3.7736-5.0314s-3.7736-10.063-15.094-15.094c-11.321-5.0314-15.094-28.931-16.352-45.283-1.2579-16.352 12.579-8.805 12.579-8.805h-16.352c-12.579 0-6.2893 0-16.352 5.0314s-7.5472-2.5157-38.994-2.5157-23.899 6.2893-32.704 15.094c-8.8051 8.805-11.321 15.094-21.384 20.126-10.063 5.0314-13.836 1.2579-33.962 20.126s15.094 49.057 15.094 49.057-3.6366 11.296-29.43 0.62235c-25.794-10.673-20.457-13.342-34.688-13.342s-32.02-0.88944-44.472-8.8944-23.126-16.01-23.126-24.015-2.6683-14.231 2.6684-14.231c5.3366 0 11.563-2.6683 15.12 2.6683 3.5578 5.3366 8.8944 10.673 1.7789-3.5578-7.1156-14.231-4.4472-16.01-20.457-23.126-16.01-7.1155-10.673-11.563-19.568-15.121-8.8945-3.5578-1.7789 3.5578-13.342-3.5578-11.563-7.1155-20.457-8.8944-27.573-23.126-7.1155-14.231-16.899-18.678-16.899-18.678s4.4472 5.3367-3.5578 8.8944c-8.005 3.5578-8.8944 3.5578-27.573 7.1155-18.678 3.5578-26.683-3.5578-29.352 6.2261-2.6683 9.7839-10.673 16.899-10.673 16.899s-12.452-5.3366-8.8944-12.452c3.5578-7.1155 3.5578-7.1155 3.5578-7.1155s-9.7839-3.5578-15.121 8.005c-5.3366 11.563-13.342 5.3367-12.452 24.904 0.88944 19.568 7.1155 21.347-1.7789 23.126-8.8944 1.7789-11.563 12.452-24.015 3.5578-12.452-8.8944-2.6683-13.342-15.121-8.8944-12.452 4.4472-12.452 6.2261-17.789 8.8944-5.3366 2.6683-23.126 10.673-24.015 8.005-0.88944-2.6683 5.3367-7.1155-4.4472-16.01-9.7839-8.8944-13.342-11.563-13.342-11.563l1.7789-8.8944s-10.673-9.7839-14.231 2.6683c-3.5578 12.452 18.678 10.673-8.005 18.678s-31.13 8.8944-43.583 8.005c-12.452-0.88944-38.246 1.7789-48.03 0.88944-9.7839-0.88944-9.7839 2.6683-30.241 1.7789-20.457-0.88945-44.472 9.7839-59.593 0.88944-15.121-8.8944-24.904-8.8944-36.467-12.452-11.563-3.5578-15.121-8.8944-29.352-16.899-14.231-8.005-6.2261-9.7839-17.789-8.005s-7.1155 4.4472-18.678 4.4472c-11.563 0-16.899 1.7789-16.899 1.7789l6.2261 5.3367s8.8944-6.2261 9.7839 3.5578c0.88944 9.7839 28.462 11.563-8.005 13.342-36.467 1.7789-65.334 4.7933-60.168 4.3393 1.8421-0.16186 3.4684-2.1566 21.203 9.2628 15.987 10.294-6.7749-2.6144 12.281 13.081 15.656 12.895-11.563 13.342 23.126 16.01 34.688 2.6683 40.025 4.4472 43.583 8.005 3.5578 3.5578 0.88944-5.3367-5.3367 7.1155s-4.4472 11.563-6.2261 15.121c-1.7789 3.5578-16.899 4.4472-20.457 1.7789-3.5578-2.6683-15.121 5.3367 6.2261 10.673 21.347 5.3367 24.015 12.452 37.357 6.2261 13.342-6.2261 14.231-13.342 29.352-5.3366 15.121 8.005 15.381 10.171 24.275 19.955 8.8944 9.7839 4.1867 11.176 4.1867 11.176s-4.4472 16.899-15.121 15.121c-10.673-1.7789-13.342-8.005-13.342-4.4472s-0.88944 8.005 9.7839 25.794-2.6683 24.904 28.462 16.899 21.347-9.7839 43.583-8.8944c22.236 0.88944 17.789 3.5578 29.352 2.6683 11.563-0.88944 11.563-2.6683 15.121-2.6683 3.5578 0 8.005 2.6683 1.7789 9.7839-6.2261 7.1155 3.5578 16.899 3.5578 16.899s-2.6683 5.3367-8.005 4.4472c-5.3367-0.88944 10.673 11.563 22.236 3.5578 11.563-8.005-12.452-21.347 14.231-12.452 26.683 8.8944 16.01 3.5578 29.352 8.8944 13.342 5.3367 16.01 2.6683 13.342 9.7839-2.6683 7.1155-0.88944 8.8944-6.2261 10.673-5.3366 1.7789 24.904 3.5578 36.467 0s7.1155-4.4472 11.563-7.1155c4.4472-2.6683 13.342-6.2261 15.121-2.6683 1.7789 3.5578 6.2261 4.4472 0.88944 12.452-5.3366 8.005-7.1155 4.4472-14.231 15.121-7.1155 10.673-5.3366 14.231-11.563 17.789-6.2261 3.5578 1.7789 9.7839 14.231 5.3367s-1.7789-27.573 5.3367-31.13c7.1155-3.5578 14.231 3.5578 20.457-5.3367 6.2261-8.8944 6.2261-17.789 15.121-16.899 8.8944 0.88944 8.8944 4.4472 13.342 1.7789 4.4472-2.6683 3.5578-15.121 6.2261-2.6683 2.6683 12.452-8.8944 3.5578 0.88944 16.01 9.7839 12.452 3.5578 15.121 15.121 12.452 11.563-2.6683 19.568-8.005 20.457-0.88944 0.88945 7.1155 0 14.231 0 14.231s-0.88944 4.4472 3.5578 7.1155-5.3366 8.8944-5.3366 8.8944-7.1155-8.005 4.4472 0 0 5.3366 20.457 10.673c20.457 5.3366 52.477 6.2261 56.924 1.7789 4.4472-4.4472 0-30.241 10.673-5.3366s-1.7789 32.909 10.673 42.693c12.452 9.7839 20.457 6.2261 31.13 15.121 10.673 8.8944 1.7789 7.1155 31.13 6.2261 29.352-0.88945 32.02-12.452 32.02-12.452s-15.12-15.121-2.6683-10.673c12.452 4.4472 21.347 5.3367 25.794 2.6683 4.4472-2.6683 2.6683-11.563 2.6683-11.563s22.236 4.4472 16.9 12.452c-5.3367 8.005-16.01 9.7839-16.01 15.121 0 5.3367-0.8895 13.342-4.4472 12.452-3.5578-0.88944 3.5577 10.673 20.457 3.5578 16.899-7.1155-5.3367-11.563 18.678-12.452 24.015-0.88944 22.236 2.6683 37.357 0s20.457 0 25.794-8.8944c5.3366-8.8944 11.563-10.673 11.563-10.673l2.6683-7.1155 7.1156 2.6683-4.4472 8.005s0-6.2261 16.899 2.6683 16.899 9.7839 36.467 8.8944c19.568-0.88944 34.688 1.7789 34.688 1.7789s9.7838-0.88945 9.7838-7.1155c0-6.2261-8.0049-5.3367 3.5578-9.7839s15.12-4.4472 15.12-4.4472-0.8894 3.5578-2.6683 11.563c-1.7789 8.005 7.1155 2.6683-3.5578 9.7839-10.673 7.1155-24.015 4.4472-8.0049 22.236s12.452 13.342 20.457 23.126c8.005 9.7839 63.15 36.467 77.382 39.135 14.231 2.6684 26.683 8.005 24.015-6.226-2.6684-14.231-18.678-17.789-2.6684-17.789s39.136 0 42.693-0.88945c3.5578-0.88944 20.457 0 20.457 0s-16.01-8.005-8.8945-8.8944c7.1156-0.88944 16.899-3.5578 32.909-8.005s7.1156-9.7839 27.573-0.88945 10.673 12.452 25.794 8.8944c15.12-3.5578 12.452-9.7839 24.015-3.5578s-5.3366 10.673 26.683 9.7839c32.02-0.88945 28.462-0.88945 40.025-5.3367s49.809-10.673 64.929-12.452c15.12-1.7789 33.799-5.3367 33.799-5.3367s-24.015-18.678-4.4472-9.7839c19.568 8.8944 21.347 14.231 14.231 32.02-7.1156 17.789-6.2261 8.8944-0.8895 32.02 5.3367 23.126-4.4472 4.4472 4.4473 36.467 8.8944 32.02 3.5577 40.914 33.799 36.467 30.241-4.4472 26.683 0.8894 42.693-4.4472 16.01-5.3367 7.1155 2.6683 16.899-8.005 9.7839-10.673 6.2261-12.452 23.126-18.678 16.899-6.2261 10.673-0.8894 18.678-10.673 8.005-9.7839 12.452-7.1155 29.352-8.8944 16.899-1.7789 18.678-3.5578 20.457-7.1156 1.7789-3.5577-2.6683-31.13-2.6683-31.13s-6.2261 8.005 13.342 28.462 33.799 26.683 50.698 25.794c16.899-0.8894 27.573-7.1155 31.13-1.7788 3.5578 5.3366 8.8944 17.789 20.457 16.899 11.563-0.8895 17.789-8.005 25.794 7.1155s0 16.01 13.342 18.678c13.342 2.6683 31.13 4.4472 36.467 9.7839 5.3367 5.3366 14.231 1.7788 14.231 1.7788s-8.8944-2.6683-8.8944-12.452c0-9.7839-11.563-14.231 5.3366-16.01 16.899-1.7789 8.8944-13.342 17.789-13.342 8.8944 0 1.7788-12.452 1.7788-12.452s-8.8944-6.2261 14.231 8.0049c23.126 14.231 16.899 23.126 43.583 22.236 26.683-0.8894 16.899-4.4472 36.467-2.6683s39.136 6.2261 48.03 17.789c8.8945 11.563 4.4473 18.678 9.7839 29.352 5.3367 10.673 19.568 17.789 25.794 32.909 6.2261 15.12-16.01 18.678 7.1156 37.357 23.126 18.678 22.236 16.899 45.362 28.462s2.6684 8.005 24.904 16.01-3.5577 0.8894 16.01-3.5578 7.1155-2.6683 25.794-5.3366 12.452-20.457 23.126-9.7839c10.673 10.673 7.1156 14.231 23.126 8.005 16.01-6.2261 21.347-8.8944 15.121-13.342-6.2261-4.4473-14.231-24.904 2.6683-4.4473s-5.3367 25.794 41.804 29.352c47.14 3.5578 53.366-2.6683 64.929-6.226 11.563-3.5578 8.8944-9.7839 16.01 6.226 7.1155 16.01-3.5578 7.1156 11.563 20.457 15.12 13.342 16.899 19.568 16.01 25.794-0.8895 6.2261 10.673-1.7789 3.5577-16.899-7.1155-15.121-26.683-28.462-26.683-38.246 0-9.7838-8.005-14.231 4.4472-29.352 12.452-15.12 13.342-14.231 17.789-26.683 4.4472-12.452 1.7789-34.688 14.231-29.352 12.452 5.3367 0 12.452 18.678 9.7839 18.678-2.6683 5.3367-15.12 22.236-1.7789 16.899 13.342 22.236 4.4472 24.015 28.462 1.7789 24.015-17.789 26.683 13.342 43.583 31.13 16.899 12.452 20.457 43.583 18.678 31.13-1.7789 18.678-10.673 36.467 2.6683 17.789 13.342 63.15 21.347 84.497 15.12 21.347-6.2261 17.789-5.3366 31.13-17.789 13.342-12.452 17.789-13.342 23.126-22.236 5.3367-8.8944 1.7789-20.457 12.452-13.342 10.673 7.1155 15.12 8.0049 9.7839 14.231-5.3367 6.2261-2.6684 12.452 13.342-0.8894 16.01-13.342 8.005-32.02 24.015-16.899 16.01 15.12 2.6683 16.01 18.678 21.347 16.01 5.3367 42.693 4.4472 46.251 6.2261 3.5577 1.7789-2.6684 9.7839-2.6684 9.7839s29.352 7.1155 48.919 4.4472c19.568-2.6683-1.7789-14.231 26.683-19.568 28.462-5.3367 41.804-10.673 43.583-0.8895 1.7789 9.7839-7.1155 22.236-7.1155 22.236s-27.573-10.673 9.7838 2.6683c37.357 13.342 43.583 25.794 69.377 15.12 25.794-10.673 15.12-15.12 37.356-16.899 22.236-1.7789 58.703-15.12 72.934-31.13s21.347-28.462 27.573-28.462c6.2261 0 12.452-5.3367 4.4473 6.2261-8.005 11.563-4.4473 6.2261-12.452 18.678-8.005 12.452 6.2261 8.8944-14.231 18.678-20.457 9.7838-23.126 9.7838-23.126 9.7838s16.899 13.342 44.472-5.3366c27.573-18.678 17.789-18.678 35.578-32.909s22.236-13.342 28.462-14.231c6.2261-0.8894-8.8945 16.899-0.8895 12.452 8.005-4.4472 7.1156 23.126 16.01-12.452s6.2261-46.251 13.342-50.698c7.1156-4.4472 8.8945 0 8.8945-7.1156 0-7.1155-27.573-8.0049 6.226-11.563 33.799-3.5578 41.804-5.3367 51.588-24.904 9.7839-19.568 18.678-38.246 15.12-49.809-3.5577-11.563 1.7789-25.794 7.1156-4.4472 5.3366 21.347 21.347 34.688 6.2261 1.7789-15.12-32.909 7.1155-26.683-24.015-44.472s-38.246-13.342-43.583-33.799c-5.3366-20.457-4.4472-17.789-5.3366-25.794-0.8895-8.005 20.457 3.5578-9.7839-5.3367-30.241-8.8944-31.13-1.7789-33.799-13.342-2.6683-11.563-9.7839-29.352-9.7839-29.352s4.4473 14.231-4.4472 3.5578c-8.8944-10.673 2.6684-1.7789-20.457-16.899-23.126-15.121-33.799-19.568-42.693-29.352-8.8944-9.7839-21.347-24.904-21.347-24.904s10.673-8.8944 14.231-1.7789c3.5577 7.1155 5.3366 16.01 6.2261 4.4472 0.8894-11.563-7.1156-40.914-8.8945-47.14-1.7788-6.2261-15.12-0.88944-7.1155-19.568 8.005-18.678 12.452-26.683 25.794-39.135s22.236-64.04 8.8945-64.929c-13.342-0.88944-17.789-8.8944-17.789-8.8944l21.347 0.88944s-12.452-13.342-10.673-23.126c1.7789-9.7839 3.5578-0.88945-8.8944 0.88944s-16.01 8.005-22.236-8.8944c-6.2261-16.899-3.5577-8.005-7.1155-17.789-3.5578-9.7839-18.678-24.904 6.2261-16.899s26.683 15.121 26.683 15.121 9.7838-7.1155-11.563-17.789c-21.347-10.673-14.231-17.789-31.13-9.7839-16.899 8.005-16.899 17.789-26.683 3.5578-9.7838-14.231-9.7838-12.452-6.226-23.126 3.5577-10.673 3.5577-5.3367 3.5577-15.121 0-9.7839-1.7789-9.7839 7.1156-11.563 8.8944-1.7789 13.342-5.3366 8.0049-12.452-5.3366-7.1155-8.8944-13.342-8.8944-13.342s-3.5578-7.1155-8.005-1.7789c-4.4472 5.3367-8.0049 5.3367-13.342 5.3367-5.3367 0-9.7839 2.6683-10.673-3.5578-0.8895-6.2261-1.7789-10.673-1.7789-10.673s-11.563 12.452-4.4472 24.015c7.1155 11.563 12.452 6.2261 8.8944 16.01-3.5578 9.7839-6.2261 18.678-8.8944 7.1155-2.6683-11.563 2.6683-10.673-4.4472-16.01-7.1156-5.3367-11.563-6.2261-10.673-13.342 0.8894-7.1155 8.8944-0.88944 1.7789-15.121-7.1156-14.231 0-16.01-11.563-17.789-11.563-1.7789-14.231 7.1155-17.789-7.1155-3.5578-14.231-3.5578-13.342 0.8894-16.01 4.4472-2.6683 0.8894-15.121 13.342-8.8944 12.452 6.2261 34.688 14.231 37.357 19.568 2.6683 5.3367-12.452-20.457-19.568-23.126-7.1156-2.6683-16.01-6.2261-28.462-6.2261s-22.236-16.899-29.352-1.7789c-7.1155 15.121-10.673 2.6683-1.7789 24.904 8.8945 22.236 16.01 18.678 6.2261 31.13-9.7838 12.452-15.12 8.005-9.7838 16.899 5.3366 8.8944 6.2261 22.236 6.2261 22.236s-11.563 10.673 4.4472 13.342c16.01 2.6683 20.457-2.6683 19.568-11.563-0.8894-8.8944-8.8944 11.563-8.8944-5.3367 0-16.899-8.8944-30.241 7.1155-19.568s10.673 17.789 19.568 21.347c8.8944 3.5578 17.789 2.6683 16.899 7.1155-0.8895 4.4472-3.5578 10.673-6.2261 4.4472-2.6684-6.2261-14.231-27.573-10.673-7.1155 3.5577 20.457-4.4473 13.342 8.8944 22.236 13.342 8.8944 18.678 16.01 3.5578 12.452-15.121-3.5578-8.8945-4.4472-25.794-4.4472-16.899 0-24.904-3.5578-31.13-7.1155-6.2261-3.5578-10.673-5.3366-10.673 1.7789s-3.5577 14.231 6.2261 18.678c9.7839 4.4472 13.342-0.88944 20.457-0.88944 7.1155 0 15.12-4.4472 8.8944 4.4472-6.2261 8.8944-16.01 8.8944-21.347 8.005-5.3366-0.88944-9.7839 7.1155-4.4472 13.342 5.3366 6.2261 13.342 8.005 16.899 8.8944 3.5578 0.88944 10.673 16.899-8.8944 9.7839-19.568-7.1155-21.347-4.4472-22.236-14.231-0.8894-9.7839 6.2261-15.121-0.8894-15.121-7.1156 0-25.794-21.347-17.789 5.3367 8.005 26.683 5.3367 23.126 21.347 32.909 16.01 9.7839 17.789 9.7839 16.899 13.342-0.8894 3.5578 12.452 1.7789 12.452 1.7789s-4.4472 5.3367-5.3366 8.005c-0.8895 2.6683-8.8944 4.4472-8.8944 4.4472s-6.2261 9.7839-1.7789 17.789c4.4472 8.005 7.1155 13.342-3.5578 10.673-10.673-2.6683-23.126-11.563-30.241-4.4472-7.1156 7.1155-16.01 19.568-5.3367 30.241s12.452 11.563 16.01 19.568c3.5577 8.005 15.12 15.121 25.794 13.342 10.673-1.7789 18.678-2.6683 18.678-2.6683s-13.342-9.7839-8.005-11.563c5.3367-1.7789-2.6683-5.3367-8.8944-13.342-6.2261-8.005-20.457-20.457-16.899-22.236 3.5578-1.7789 5.3366-4.4472 17.789-4.4472s24.015 2.6683 32.02-6.2261c8.0049-8.8944 10.673-9.7839 6.2261-24.904-4.4473-15.121-16.01-16.899-4.4473-24.904s17.789-11.563 24.015-16.899c6.2261-5.3366 1.7789-24.015 12.452-10.673s18.678 15.121 10.673 25.794-11.563 8.005-8.005 15.121c3.5578 7.1155 18.678-2.6683 24.904 5.3366 6.2261 8.005 1.7789 8.8944 6.2261 13.342 4.4472 4.4472 16.899-1.7789 15.12 10.673-1.7789 12.452-0.8894 6.2261-7.1155 17.789s0 5.3367 0 5.3367 1.7789 13.342 6.2261 19.568c4.4472 6.2261 19.568 21.347 8.005 22.236-11.563 0.88944-23.126 0-34.688-12.452-11.563-12.452-16.01-26.683-24.015-21.347-8.005 5.3366-9.7839 14.231-10.673 17.789-0.8895 3.5578-8.8945 16.01-8.8945 16.01s25.794-15.121 28.462 0c2.6683 15.121-1.7789 32.02 13.342 29.352 15.12-2.6683 24.015-8.8944 32.909-1.7789 8.8944 7.1155 10.673 13.342 10.673 23.126 0 9.7839 19.568 24.904-1.7789 24.015-21.347-0.88944-38.246-12.452-48.919-29.352-10.673-16.899-20.457-28.462-34.688-32.909-14.231-4.4472-33.799-5.3367-43.583-3.5578-9.7838 1.7789-30.241-0.88945-40.025-7.1155-9.7838-6.2261-17.789-16.01-31.13-19.568-13.342-3.5578-23.126-5.3366-29.352-5.3366-6.2261 0-19.568 3.5578-15.12-10.673 4.4472-14.231 8.005 0.88944 6.2261-26.683-1.7789-27.573-7.1155-26.683-5.3366-37.357 1.7788-10.673-0.8895-32.909 8.8944-8.005s16.01 16.899 13.342 26.683c-2.6683 9.7839-4.4472 11.563-4.4472 11.563s8.005-0.88944 13.342-9.7839c5.3366-8.8944 0.8894-13.342 5.3366-12.452 4.4472 0.88944 5.3367 15.121 5.3367 15.121s9.7838 11.563 16.899-0.88944c7.1155-12.452 15.12-29.352 7.1155-36.467-8.005-7.1155-8.8944-17.789-8.8944-17.789s7.1155-5.3367-8.8944-2.6683c-16.01 2.6683-34.688 17.789-32.02 1.7789 2.6684-16.01-4.4472-17.789 8.005-22.236 12.452-4.4472 14.231-8.005 18.678-16.01 4.4472-8.005-2.6683-22.236 9.7839-12.452 12.452 9.7839 14.231 11.563 21.347 10.673 7.1155-0.88944 9.7839-2.6683 9.7839-2.6683s-0.8895-9.7839-6.2261-9.7839c-5.3367 0-11.563 3.5578-17.789 0-6.2261-3.5578-17.789-11.563-23.126-8.005-5.3366 3.5578-5.3366 16.899-9.7839 13.342-4.4472-3.5578-9.7838-8.8944-9.7838-8.8944l-34.688 2.6683-6.2261 8.005s5.3367 10.673 0.8895 22.236c-4.4473 11.563-22.236 21.347-16.01 1.7789 6.2261-19.568-5.3367-35.578-5.3367-35.578l-22.236-0.88945-4.4472-11.563s0.8894 3.5578-1.7789 8.8944-15.12 1.7789-16.899 9.7839c-1.7789 8.005-7.1156 2.6683 1.7789 3.5578 8.8944 0.88945 16.899 7.1155 6.2261 13.342-10.673 6.2261-12.452 11.563-12.452 11.563s-10.673-0.88944-8.8945-11.563c1.7789-10.673 5.3367-21.347 1.7789-19.568-3.5578 1.7789-3.5578-4.4472-8.8944 7.1155-5.3367 11.563-8.005 0.88944-12.452 23.126-4.4472 22.236-7.1155 35.578-8.8944 14.231s0-30.241 0-30.241-0.8895 18.678-3.5578 24.015c-2.6683 5.3367-10.673 5.3367-10.673 5.3367s-10.673-2.6683-13.342-10.673c-2.6684-8.005-14.231-13.342-14.231-13.342s6.2261-2.6683 6.2261 11.563-5.3367 8.8944 6.2261 21.347c11.563 12.452 22.236 20.457 16.899 35.578-5.3367 15.121-14.231 23.126-14.231 23.126l-13.342-0.88944s-7.1156 2.6683 16.899 6.2261 30.241-7.1155 33.799-7.1155c3.5578 0 2.6683 4.4472 8.005 1.7789 5.3366-2.6683 8.0049-13.342 9.7838-9.7839 1.7789 3.5578 8.005 19.568 5.3367 24.015-2.6683 4.4472 17.789-6.2261 8.8944 10.673-8.8944 16.899-24.015 8.8944-36.467 5.3366s-28.462-9.7839-35.578-9.7839c-7.1156 0-24.015-6.2261-35.578-6.2261s-16.899 8.8944-25.794-5.3367c-8.8944-14.231-6.2261-14.231-26.683-16.01-20.457-1.7789-40.025 5.3366-41.804-7.1155-1.7789-12.452-9.7839-20.457-7.1156-30.241 2.6684-9.7839 14.231 2.6683 19.568-12.452 5.3366-15.121 4.4472-8.8944 5.3366-16.899 0.8895-8.005 1.7789-11.563-4.4472 0.88944s2.6683 16.01-10.673 16.899c-13.342 0.88944-16.899-16.01-22.236 7.1155-5.3366 23.126 1.7789 33.799 1.7789 38.246 0 4.4472-12.452 17.789-19.568-3.5578-7.1156-21.347-8.8944-32.909-8.8944-32.909s-14.231 1.7789-12.452-1.7789c1.7788-3.5578 13.342-3.5578 7.1155-9.7839-6.2261-6.2261-20.457-8.005-9.7839-15.121 10.673-7.1155 12.452-5.3366 12.452-16.01s-7.1155-20.457 4.4472-19.568c11.563 0.88944 14.231 0 16.9-3.5578 2.6683-3.5578 14.231 0.88944 11.563 7.1155-2.6683 6.2261 12.452 15.121 14.231-2.6683 1.7789-17.789-5.3367-16.899-9.7839-24.904s3.5578-12.452-2.6683-21.347c-6.2261-8.8944-8.8944-10.673-8.8944-10.673s22.236-14.231 24.015-6.2261c1.7789 8.005 8.8944 13.342 3.5578-6.2261-5.3367-19.568 3.5578-16.01-15.12-29.352s-25.794-11.563-22.236-18.678c3.5578-7.1155-8.8944-13.342-8.8944-13.342s-6.2261 1.7789-4.4472 8.005c1.7788 6.2261 11.563 10.673 19.568 18.678s16.899 6.2261 9.7839 16.899c-7.1156 10.673-21.347 16.01-16.01 20.457 5.3367 4.4472-4.4472 10.673-8.005 8.005-3.5578-2.6683-8.8944-10.673-16.899 0-8.005 10.673-16.01 15.121-11.563 19.568 4.4472 4.4472 20.457 9.7839 20.457 9.7839s1.7789 1.7789-8.005 1.7789c-9.7838 0-16.01 0.88944-16.01 0.88944l-8.8944 8.8944s16.01-0.88944 9.7838 9.7839c-6.2261 10.673-8.8944 9.7839-4.4472 19.568 4.4472 9.7839 2.6683 12.452 2.6683 12.452s-14.231-18.678-17.789-11.563c-3.5578 7.1155 1.7789 10.673-5.3367 20.457-7.1155 9.7839-13.342 12.452-13.342 12.452s-0.8894 14.231-2.6683 17.789c-1.7789 3.5578-6.2261 4.4472-8.8945 8.8944-2.6683 4.4472-5.3366-0.88945-4.4472 8.005 0.8895 8.8944-15.12 11.563-15.12 11.563l-3.5578 14.231s-21.347 8.005-16.899-0.88944l9.7839-19.568s-20.457 9.7839-18.678-6.2261c1.7789-16.01 7.1156-19.568 7.1156-19.568s-6.2261-3.5578-10.673-15.121c-4.4472-11.563-10.673-24.015-18.678-26.683-8.0049-2.6683-12.452 0.88945-3.5577-12.452 8.8944-13.342 16.899-8.8944 7.1155-21.347-9.7838-12.452-23.126 1.7789-21.347-12.452 1.7789-14.231 4.4472 16.01 6.2261-16.01s4.4472-40.914-3.5578-49.809c-8.005-8.8944-22.236-10.673-22.236-10.673s-3.5578-3.5578-5.3367 11.563-9.7839 18.678-3.5578 31.13 8.8945 24.904-2.6683 17.789c-11.563-7.1155-13.342-7.1155-12.452-12.452 0.8895-5.3366-12.452-4.4472-15.12 0-2.6683 4.4472-15.12-7.1155-17.789 5.3367-2.6683 12.452-2.6683 22.236-2.6683 22.236l-17.789-4.4472s7.1155 8.005 5.3366 11.563c-1.7789 3.5578-10.673 7.1155-9.7838 15.121 0.8894 8.005-3.5578 8.005-8.8945 7.1155-5.3366-0.88944-7.1155 3.5578-7.1155 3.5578s-16.01 9.7839-15.12-0.88944c0.8894-10.673 7.1155-7.1155 3.5577-28.462-3.5577-21.347-8.8944-13.342-8.8944-27.573s0.8895-29.352 0.8895-29.352-4.4473-15.121-15.121-0.88944c-10.673 14.231-18.678 17.789-15.12 39.135 3.5578 21.347 16.01 25.794 16.01 25.794s0.8894-16.899 2.6683-12.452c1.7789 4.4472 10.673-7.1155 2.6683 15.121-8.005 22.236-12.452 21.347-11.563 35.578 0.8894 14.231 14.231 20.457 0.8894 26.683-13.342 6.2261-17.789 1.7789-21.347 18.678-3.5578 16.899 11.563 22.236-11.563 24.904-23.126 2.6683-29.352-9.7839-23.126-9.7839 6.2261 0 20.457 2.6683 13.342-8.8944-7.1156-11.563 19.568-19.568 19.568-19.568s-38.246-10.673-44.472 5.3366c-6.2261 16.01-4.4472 11.563-7.1156 21.347-2.6683 9.7839-1.7788 10.673-14.231 11.563-12.452 0.88944-21.347 2.6683-21.347 2.6683l2.6683 8.8944s-22.236 8.8944-21.347 2.6683c0.8894-6.2261-11.563-4.4472-11.563-4.4472s-3.5578 13.342-10.673 6.2261c-7.1155-7.1155-22.236 3.5578-26.683 2.6683-4.4472-0.88944-12.452-11.563-8.005-15.121 4.4473-3.5578 2.6684-10.673-4.4472-10.673-7.1155 0-10.673-8.005-16.01 7.1155-5.3367 15.121-10.673 22.236 6.2261 26.683 16.899 4.4472 15.12-2.6683 26.683 6.2261s20.457 20.457 5.3367 16.899c-15.12-3.5578-26.683-8.8944-26.683-8.8944h8.005s-8.8944 3.5578-22.236-3.5578c-13.342-7.1155 6.2261-8.8944-19.568-16.899-25.794-8.005-25.794-9.7839-23.126-17.789 2.6683-8.005 3.5578-18.678 3.5578-18.678s4.4472 4.4472-20.457-1.7789-35.578-5.3367-34.688-13.342c0.8895-8.005-11.563-20.457-11.563-20.457s-8.005 4.4472-16.899 8.005c-8.8945 3.5578-4.4472-7.1155-15.121 5.3367-10.673 12.452-5.3366 29.352-19.568 17.789s-64.04-18.678-64.04-18.678 5.3366 10.673-1.7789 10.673c-7.1156 0-20.457-2.6683-20.457-2.6683l13.342 14.231s-8.005 0-18.678-0.88944c-10.673-0.88945-8.8944-10.673-19.568-12.452-10.673-1.7789-24.015-3.5578-36.467 4.4472s-10.673 32.02-35.578 37.357c-24.904 5.3366-20.457-8.005-23.126-16.01-2.6684-8.005-19.568-8.005-19.568-8.005s-8.005 10.673-23.126 14.231c-15.12 3.5578-40.914-0.88944-69.376-8.8944s-27.573 0.88944-24.904-5.3367c2.6683-6.2261 31.13-6.2261 69.376 4.4472s8.8944-4.4472 23.126-10.673c14.231-6.2261 30.241-8.8944 30.241-8.8944s-17.789-2.6683-26.683-33.799c-8.8944-31.13 21.347-23.126 48.03-26.683 26.683-3.5578 42.693 8.005 64.04 17.789 21.347 9.7839 46.251 25.794 46.251 25.794s-12.452-8.8944-16.01-18.678c-3.5578-9.7839 3.5578-8.8944 14.231-19.568 10.673-10.673 0-6.2261-3.5578-33.799s-6.2261-17.789-0.8894-26.683c5.3366-8.8944 10.673 17.789 13.342 11.563 2.6683-6.2261 4.4472-17.789 0.8894-55.145-3.5577-37.357 1.7789-15.121 27.573-7.1155 25.794 8.005-2.6684 36.467-10.673 40.914-8.005 4.4472-14.231 30.241-14.231 43.583s15.12 26.683 59.593 26.683c44.472 0 1.7789-10.673 36.467-12.452 34.688-1.7789 8.0049 25.794 29.352 29.352 21.347 3.5578 8.0049 0.88944 10.673-21.347 2.6683-22.236 56.924 0 56.924 0s-6.2261 8.005 0.8894 16.01c7.1156 8.005 34.688 32.909 26.683 40.025-8.005 7.1155 1.7789 15.121 6.2261 9.7839 4.4472-5.3367 33.799 0.88944 33.799 0.88944s3.5578-1.7789 10.673-6.2261c7.1156-4.4472 3.5578-8.8944-3.5577-20.457-7.1156-11.563-8.8945-7.1155-7.1156-18.678 1.7789-11.563 3.5578-16.01 2.6684-48.919-0.8895-32.909-11.563-37.357-11.563-37.357s-0.8894 13.342-10.673 26.683c-9.7839 13.342-16.899 16.01-37.357 16.01-20.457 0-27.573 8.8944-54.256 13.342-26.683 4.4472-40.025-11.563-42.693-22.236-2.6684-10.673-9.7839-25.794-13.342-31.13-3.5577-5.3367-27.573-4.4472-41.804-10.673-14.231-6.2261-11.563-30.241-4.4472-30.241 7.1156 0 19.568-7.1155 17.789-24.015-1.7789-16.899-15.12-28.462-15.12-28.462l-9.7839 10.673s-13.342-24.015-10.673-33.799c2.6683-9.7839-5.3367-16.01-7.1156-29.352-1.7788-13.342 11.563-7.1155 16.899-24.015 5.3367-16.899 8.8945-18.678 9.7839-35.578 0.8895-16.899 15.12-16.899 27.573-26.683 12.452-9.7839 17.789-26.683 23.126-51.588 5.3367-24.904-5.3366-19.568-5.3366-26.683 0-7.1155 7.1155-24.904 13.342-42.693 6.2261-17.789-17.789-16.899-19.568-11.563-1.7789 5.3366-17.789-1.7789-24.015-16.01-6.2261-14.231-22.236-1.7789-22.236-1.7789l3.5577 7.1156s-16.899 8.0049-23.126 8.0049c-6.2261 0-9.7838 4.4473-16.01 14.231-6.2261 9.7839-8.8945 0.8895-10.673-2.6683-1.7789-3.5578-9.7839-10.673-22.236-10.673s-2.6683-17.789-2.6683-17.789-13.342 11.563-21.347 31.13c-8.005 19.568-3.5578 17.789-3.5578 17.789l-8.8944 2.6683s2.6683 5.3367-4.4473 6.2261c-7.1155 0.88944-13.342-20.457-13.342-20.457s-7.1155 7.1156-3.5578 28.462c3.5578 21.347 13.342 28.462 44.472 40.914s12.452 6.2261 18.678 15.121c6.2261 8.8944-8.8945 6.2261-8.8945 6.2261s3.5578 6.2261 23.126 16.899-9.5973 19.779-9.5973 19.779z" sodipodi:nodetypes="ccssscssscssscsssssscsssscssscsssssssscsscssscssssssscssscsssscssssscsscsscsssssscssssssssssscssscscssssssssccssssssssssccsssssssssssssscsssssssscssssssssssssssssssssscscssssssscsscsssssssccccsscsscsssssssscsssssssscssssssssssscssssssscssscssssssssssssssssssscsssssssssssssssssssccssscsssssssscsssssssssssssscsscsssccscsssccssssscssssssscssccsssscsssssssssssscscsssccssssssssssssscsssccccsssssscssssssssssssssscssssccsssssssssssssssscsscsscsssssscsssscccsscccsssscssssscscccsssccsssssssssssssscsssssccsssscsssscssssccsssssscsccsscsscsccccscscssssssscssscssccscscssscsscsssssssscsssccccssssssssccssscsccssscsccssssccssssscssscssssssssssssscssscsssscsssscsssccssssssssssccsscscsccscssscsc" style="opacity:.76667;stroke:#ff9955;fill:#ffff00" inkscape:connector-curvature="0"/>
    <path id="path3011" d="m26.288 610.39c-31.547 0.3232 9.3184 2.2494 9.3184 2.2494l40.081 15.425 51.364 23.584c-3.4983 0.52379 27.245 6.5432 22.855 12.884-11.321 16.352-16.368 10.086-2.5312 11.344 13.836 1.2579 17.617 3.7732 13.844 10.062-3.7736 6.2893-12.414 2.2521 5.0474 12.57 13.836 8.1761 10.684 15.707 11.312 23.883 1.2578 16.352 5.0226-2.4921 13.828-1.2343 1.2763 0.18233 2.1843-0.0248 2.8125-0.40625 0.0458 2.0295 0.2985 4.9426 0.96875 9.1875 3.7736 23.899 3.773 26.414 15.094 25.156 11.321-1.2579 13.828-13.821 21.375-7.5312 7.5472 6.2893 5.0307 10.055 20.125 6.2812 15.094-3.7736 8.82-13.836 17.625-10.062 8.805 3.7736 11.328 12.594 8.8125 17.625-2.5157 5.0314-10.062 11.32-15.094 10.062-5.0314-1.2579-8.8131 3.7812 6.2812 3.7812s25.148-12.586 31.438-8.8125c6.2893 3.7736-1.2504 3.7808 8.8125 13.844s1.2651 12.578 13.844 10.062c12.579-2.5157 18.844 2.5 18.844 2.5s1.2803-13.844 26.438-8.8125c25.157 5.0314 21.367 6.2891 27.656 5.0312 6.2893-1.2579 13.843-2.5 28.938-2.5 15.094 0 11.328 1.2657 23.906-1.25 12.579-2.5157 25.141-12.579 27.656 0 2.5157 12.579-5.0161 16.344 7.5625 16.344s18.851 7.5544 22.625 13.844c3.7736 6.2893 6.2889 25.156 10.062 25.156 3.7736 0 11.336-3.7972 7.5625 3.75-3.7736 7.5472-6.282 11.336 13.844 12.594 20.126 1.2579 36.476-21.391 45.281-13.844 8.805 7.5472 10.062 10.055 25.156 11.312 15.094 1.2579 22.625-8.7812 22.625-8.7812s-20.117 7.5242-26.406-11.344c-6.2893-18.868-16.352-26.406 0-26.406s20.125 10.078 30.188 7.5625c10.063-2.5157-2.5164-5.0468 15.094-7.5625s22.641-6.274 15.094 7.5625c-7.5472 13.836-1.2653 13.812-13.844 13.812s-12.563 2.5312-12.563 2.5312-5.0392 5.0389 1.25 8.8125c6.2894 3.7736 16.344 8.7812 16.344 8.7812l-6.2812 12.594s-5.0242 5.0238 13.844-3.7812-3.7744-17.602 20.125-16.344c23.899 1.2579 21.375 1.2655 31.438 3.7812s11.336-2.5236 17.625 1.25c6.2893 3.7736 11.312 7.5312 11.312 7.5312s10.055-1.2581 11.312 5.0312c1.2579 6.2893-7.5319 10.062 7.5625 15.094 15.094 5.0314 18.867-7.5391 30.188-6.2812s21.391 3.7885 13.844 17.625c-7.5473 13.836-26.438 16.344-26.438 16.344s0.0002 11.321-5.0312 5.0312c-5.0315-6.2893 7.5554-12.578-11.312-15.094-18.868-2.5157-27.688-2.5312-27.688-2.5312s-3.7732 0.0002-10.062-5.0312c-6.2893-5.0314-7.5313-12.562-7.5313-12.562s-11.337 10.046 7.5313 22.625 25.164 2.523 33.969 13.844c8.8053 11.321 16.367 10.063 27.688 5.0312 11.32-5.0314 17.617-10.062 23.906-15.094 6.2893-5.0314-13.852-16.359 7.5312-18.875 21.384-2.5157 42.781-3.75 42.781-3.75s11.313 3.7653 1.25 11.312c-10.063 7.5472-22.656 3.7812-22.656 3.7812s-16.353 6.2732 15.094 12.562c31.447 6.2893 40.265 7.5472 52.844 0 12.578-7.5472 15.094-21.375 15.094-21.375l-6.2813-5.0312s1.2496-1.2736 11.313 2.5-0.0006 11.328 15.094 13.844c15.094 2.5157 3.7645-2.5079 31.438-1.25 27.673 1.2579 30.195-5.0314 39 0s41.508 16.359 45.281 13.844c3.7736-2.5157 6.2809-13.836 11.313 0 5.0313 13.836 11.344 13.812 11.344 13.812l-3.7813 12.594s7.5305 8.7974 27.656-3.7812 41.531-28.938 41.531-28.938l-7.5626-1.25s-11.329-8.8044 6.2813-15.094c17.61-6.2893 27.679-20.133 39-8.8125 11.321 11.321 10.07 18.875 3.7813 18.875-6.2895 0-20.14 1.2653-22.656 8.8125-2.5157 7.5472-5.0313 16.344-5.0313 16.344l-12.562 6.2812s-6.3045 0.0153-7.5626 7.5625c-1.2577 7.5472-16.344 6.2812-16.344 6.2812l-7.5313 6.2812s22.619 13.844-11.344 13.844c-33.962 0-23.875 0.008-33.938-1.25-10.063-1.2579-20.148 10.055-31.469-3.7812s-23.883-13.844-7.5312-18.875c16.352-5.0314 17.594-12.562 17.594-12.562s-21.367-22.649-27.656-18.875c-6.2893 3.7736-31.469-1.25-31.469-1.25s-8.7811-3.7659-13.813 3.7812c-0.091 0.13705-0.1908 0.24938-0.2812 0.375 1.6132-0.0507 3.766 0.17588 6.5625 0.875 15.094 3.7736 22.641 3.7732 15.094 10.062-7.5471 6.2893-11.312-10.079-11.312 12.562 0 22.642-7.5475 18.882 10.062 27.688 17.61 8.805 26.422 10.062 18.875 15.094-7.5471 5.0314-47.804-7.5621-54.094-17.625-6.2893-10.063-17.625-18.844-17.625-18.844s-11.313 5.0073 3.7813 18.844c15.094 13.836 26.413 21.406 50.312 26.438 23.9 5.0314 23.89-5.0312 36.469-5.0312s39.007-2.5155 47.812-5.0312 28.93-8.8125 35.219-8.8125c6.2894 0 13.82-11.312 22.625-11.312 8.8052 0 18.89 0.00039 31.469-10.062 12.579-10.063 13.812-13.844 18.844-18.875 5.0313-5.0314 1.2812-13.844 1.2812-13.844s1.2571-25.142 20.125-2.5 6.2877 31.445 35.219 35.219c28.931 3.7736 37.719 1.25 37.719 1.25l45.281 11.312s18.867 1.2661 30.187-11.312c11.321-12.579 64.171-18.868 76.75-10.062 12.579 8.805 25.156 12.562 25.156 12.562s-8.8129 6.2889 1.25 10.062c10.063 3.7736 31.438-5.0312 31.438-5.0312s11.32-6.2814 30.188-1.25 50.312 10.062 50.312 10.062 3.781 5.0466 8.8125 12.594c5.0314 7.5472 13.836 12.586 10.062 18.875-3.7736 6.2893-16.352 22.617 5.0312 33.938 21.384 11.321 64.156 10.062 64.156 10.062s-59.11-27.672-46.531-35.219c12.579-7.5472 12.577-7.547 45.281-5.0312 32.704 2.5157 49.062-5.0312 49.062-5.0312s8.8043 10.078 15.094 12.594c6.2891 2.5157 6.2808-3.7893 16.344 2.5s16.344 10.062 16.344 10.062l10.063 6.3125 47.812 8.7813s13.82-23.884 22.625-7.5313c8.8051 16.352 8.8045 27.664 15.094 31.438 6.2893 3.7736 22.649 20.141-1.25 12.594-23.899-7.5472-33.969-16.375-33.969-16.375l-16.344-6.2813s20.125 10.062 25.156 20.125c5.0315 10.063 11.32 10.055 30.187 11.312 18.868 1.2579 2.5145-16.352 30.188-10.062 27.673 6.2893 21.374 12.594 46.531 17.625 25.157 5.0314 40.273 17.602 56.625 1.25s11.32-26.406 30.188-21.375c18.868 5.0315 11.304 18.859 27.656 31.438s33.969-2.5 33.969-2.5 1.258 13.812-5.0313 18.844c-6.2891 5.0314-54.071-8.8051-37.719 0 16.352 8.805 50.312 3.7812 50.312 3.7812s-12.595-13.844 12.562-3.7812 32.718 15.094 57.875 10.062c25.157-5.0315 57.851-6.2892 71.688-5.0313 13.836 1.2579 10.062 7.5706 20.125 1.2813 10.063-6.2894 3.7807-8.8204 13.844-7.5625 10.063 1.2578 11.304 2.5078 17.594 1.25 6.2893-1.2579 8.8125-5.0313 8.8125-5.0313l-22.625-11.312-13.844 6.2813-17.625-5.0313-20.125-1.25-12.562-1.25s3.7806-13.844 18.875-13.844 20.125 5.0395 20.125-6.2813 2.4925-20.141-6.3126-17.625c-8.8049 2.5157-11.32 6.3123-15.094 11.344-3.7735 5.0314-13.812 8.7812-13.812 8.7812h-15.094s-26.43-2.4923-27.687 1.2813c-1.2581 3.7735 10.062 20.125 10.062 20.125l-15.094 3.75-22.656-7.5313s-56.594 2.5083-41.5-8.8125 25.164-7.5468 39-10.062c13.836-2.5157 6.2884-3.7577 25.156-7.5312 18.868-3.7736 28.938-5.0313 28.938-5.0313s-8.8129-2.531 1.25-7.5625c10.063-5.0314 11.32-7.5548 25.156-3.7812 13.836 3.7735 21.391 6.3129 23.906-3.75 2.5157-10.063 3.7813-21.406 3.7813-21.406s32.68-20.109 13.812-22.625c-18.868-2.5157-11.312 11.305-36.469 12.562-25.157 1.2579-44.039 0.016-42.781-7.5312 1.2579-7.5472 8.8126-16.344 8.8126-16.344s-30.172-12.578-37.719-10.062c-7.5472 2.5157-28.93 3.7504-20.125-6.3125s17.602-21.367 16.344-27.656c-1.2581-6.2893 8.7979-22.641-18.875-10.062s-33.945 13.82-37.719 27.656c-3.7736 13.836-25.156 7.5625-25.156 7.5625l3.75-13.844s-10.062 2.5151-20.125 15.094-27.656 13.836-32.688 5.0312c-5.0315-8.805-13.852-10.07-2.5312-18.875s10.062-16.344 10.062-16.344-11.312-5.0389-21.375-8.8125-18.875-11.312-18.875-11.312l-12.562-5.0312s7.5401-16.352-18.875-15.094c-26.415 1.2579-33.969-2.5312-33.969-2.5312s10.054 15.117 21.375 21.406c11.321 6.2893 5.0463 17.601 22.656 21.375 17.61 3.7736 25.164-2.5242 28.938 16.344 3.7736 18.868 6.2663 22.656-11.344 17.625-17.61-5.0314-2.4915-6.2887-18.844-15.094-16.352-8.805 7.5404-21.391-23.906-8.8125-31.446 12.579-12.585 23.891-33.969 16.344-21.384-7.5472-3.765-7.5546-21.375-8.8125s5.0169 13.844-27.688 3.7812c-32.704-10.063-23.875 11.337-33.938-12.562s-5.0389-16.367-8.8125-27.688-16.36 2.5084-3.7812-13.844 3.7651-15.086 16.344-16.344c12.579-1.2579 16.375-2.5232 16.375-8.8125s1.2586-2.4918-20.125-13.812c-21.384-11.321-20.132-23.915-33.969-12.594-13.836 11.321-13.836 11.312-20.125 21.375-6.2893 10.063-7.5547-5.0084-8.8126 11.344s5.0157 13.828 2.5 21.375c-2.5155 7.5472-6.2812 10.062-6.2812 10.062s20.141-12.594 22.656 2.5c2.5157 15.094 35.22 17.633 0 21.406-35.22 3.7736-57.875 12.571-62.906-8.8125-5.0314-21.384 2.5169-25.156-30.188-30.188-32.704-5.0314-52.812-8.797-57.844-6.2812-5.0316 2.5157-27.68 6.2814-28.938 1.25-1.2578-5.0314 2.5158-0.0151 0-12.594-2.5155-12.579-3.7808-22.617-13.844-23.875-10.063-1.2579-18.867-35.22-20.125-15.094-1.2578 20.126 11.328 8.7883 8.8125 27.656-2.5158 18.868-0.01 13.844-3.7812 18.875-3.7736 5.0314-7.5626 16.344-7.5626 16.344s-10.054 1.2504-26.406-8.8125 39.011-6.2887-32.688-15.094c-71.698-8.805-47.819-3.7579-81.781-2.5s-22.639 7.5552-50.312-6.2812-31.43-13.844-37.719-13.844c-6.2893 0-13.844-2.5312-13.844-2.5312s2.5003-6.281-7.5624-11.312c-10.063-5.0314-56.586-17.602-62.875-11.312-6.2895 6.2893-6.3044 21.391-17.625 18.875-11.321-2.5157-35.203-11.336-42.75-12.594-7.5473-1.2579-28.93-8.7887-35.219-17.594-6.2893-8.805 12.564-10.062-12.594-10.062-25.157 0-56.586 5.0309-47.781 15.094s12.578 17.586 5.0312 18.844c-7.5471 1.2579-23.906 1.2738-23.906-7.5312s-12.586-17.617 1.25-23.906c13.836-6.2893 23.891-7.5387 26.406-16.344 2.5159-8.805-10.062-16.344-10.062-16.344s0.01 8.8044-11.313 15.094c-11.321 6.2893-20.125 12.562-20.125 12.562s1.2581-11.328 0-18.875c-1.2578-7.5472-5.0153-8.781-12.562-13.812-7.5473-5.0314-16.375-18.891-11.344-21.406 5.0315-2.5157-8.7812-11.312-8.7812-11.312s-35.242-0.00079-31.469 20.125c3.7735 20.126 7.5542 11.328 18.875 23.906 11.321 12.579 25.149 11.312 21.375 21.375-3.7736 10.063-1.2336 12.57-18.844 16.344-17.61 3.7736-18.875 7.5627-23.906 2.5312-5.0314-5.0314-21.406 6.2812-21.406 6.2812s-3.7656-6.2966-6.2813-13.844c-2.5157-7.5472 8.8054-13.812-10.062-13.812-18.868 0-31.43-10.086-22.625 3.75s21.36 15.109 13.812 17.625c-7.5472 2.5157-10.062 2.5-10.062 2.5s-36.461-6.2732-37.719-12.562c-1.2577-6.2893 6.2891-8.8123 5.0313-13.844-1.2579-5.0314-2.5313-7.5312-2.5313-7.5312s12.586 1.2504 13.844-8.8125c1.2579-10.063 3.7659-11.312-3.7812-16.344-7.5473-5.0314-17.594-13.844-17.594-13.844s-7.547 1.2653-5.0312 8.8125c2.5155 7.5472 3.7816 15.094-6.2813 15.094s-17.625 1.25-17.625 1.25l-6.2813 13.844s17.61-8.8052 15.094 5.0312c-2.5157 13.836-23.906 12.571-23.906 6.2812 0-6.2893-2.508-12.586-1.25-18.875 1.2577-6.2893 6.2891-7.5312 0-7.5312-6.2895 0-18.875 12.562-18.875 12.562s-2.5236-12.562 1.25-17.594c3.7734-5.0314 3.7734-10.07 0-13.844-3.7736-3.7736-28.906-6.2966-28.906-13.844v-12.594s-15.125 2.5228-10.094 18.875c5.0313 16.352 15.11 18.874 7.5624 33.969-7.5471 15.094-20.133 35.211-23.906 21.375-3.7736-13.836-3.7812-21.375-3.7812-21.375l-3.75-15.094s-6.3126-3.7738-6.3126 5.0312 3.7978 23.899-18.844 15.094-12.586-16.351-18.875-20.125c-6.2893-3.7736-6.2809-6.2812-16.344-6.2812s-15.102 3.7659-13.844-3.7812c1.2578-7.5472 1.2422-11.336-2.5312-17.625-3.7736-6.2893-1.2575-2.4925-10.063 6.3125-8.805 8.805-32.703 15.102-30.187 8.8125 2.5155-6.2893 11.344-12.594 11.344-12.594l-26.438-3.7812h-31.438l11.312-10.062s-27.672-3.7653-20.125-11.312c7.5471-7.5472 16.375-6.2966 16.375-13.844 0-7.5472-20.156-21.375-20.156-21.375l15.125-5.0312 8.7812-10.062s28.953 5.0236 41.531 1.25c12.579-3.7736 15.07-13.829 33.938-1.25s22.648 20.117 39 21.375c16.352 1.2579 30.179-6.2972 41.5 1.25 11.32 7.5472 13.851 12.586 22.656 18.875 8.805 6.2893-8.8136 3.7889 21.375 7.5625s28.937 8.7889 39 12.562c10.063 3.7736-1.2588 7.5548 25.156 3.7812s31.445 1.2577 40.25 5.0312c8.8052 3.7736 17.617 10.07 23.906 8.8125 6.2893-1.2579-20.117-15.101-16.344-28.938 3.7734-13.836 10.038-28.93 23.875-10.062 13.836 18.868 6.3044 38.992 12.594 40.25 6.2893 1.2579 13.828 3.7659 16.344-3.7812 2.5158-7.5472 18.89-23.906 36.5-18.875 17.61 5.0314 30.164 12.578 33.938 20.125 3.7734 7.5472 7.5624 13.844 7.5624 13.844l21.375-1.25s-5.0238-3.7809 3.7813-13.844c8.805-10.063 15.077-7.555 37.719 1.25s46.562 8.8204 61.656 7.5625 7.5538-3.7738 33.969 5.0312 25.14 10.078 37.719 7.5625c12.579-2.5157 35.219 2.5 35.219 2.5s54.101 18.875 67.937 18.875c13.837 0 10.054 2.5077 41.5 6.2812 31.447 3.7736 25.155-6.2816 50.313 3.7812 25.157 10.063 2.5068-8.8133 26.406 11.312 23.899 20.126 30.194 38.985 54.094 21.375 23.899-17.61 17.616-32.704 39-20.125s8.8197 18.875 27.687 18.875c18.868 0 74.188-1.25 74.188-1.25l-3.75-11.312s18.843-11.329 33.937 1.25 31.469 16.344 31.469 16.344-20.148 3.7889-36.5 7.5625-45.281 11.305-60.375 7.5312c-15.094-3.7736-26.406-5.0312-26.406-5.0312s10.053 11.312 41.5 16.344c31.446 5.0314 41.515 11.344 64.156 1.2812 22.642-10.063 47.789-30.188 56.594-30.188 8.8049 0 26.437-2.5238 36.5 6.2812s28.929 17.594 35.219 17.594c6.2893 0 17.594 15.094 17.594 15.094l2.5313 22.656s-13.852 12.586-12.594 18.875c1.2577 6.2893 11.344 12.562 11.344 12.562s-5.0316-16.359 5.0313-18.875c10.063-2.5157 27.656-21.375 27.656-21.375l8.8125 11.312s6.297-6.2732 3.7813-12.562c-2.5157-6.2893-5.0396-13.844 6.2812-13.844s36.476 5.047 45.281 2.5312c8.8051-2.5157 10.063-22.656 10.063-22.656s27.687 1.2736 32.719-2.5c5.0314-3.7736 7.5232-10.062 13.812-15.094 6.2894-5.0314 13.844-6.3125 13.844-6.3125s-5.0231 11.328-11.313 23.906c-6.2891 12.579-23.906 10.062-23.906 10.062s-17.618 12.585 1.25 23.906 37.75-2.5316 47.812 7.5312c10.063 10.063 6.2885 23.914 20.125 17.625 13.836-6.2893 30.188-15.101 30.188-23.906s3.7812-13.844 3.7812-13.844 6.2652 5.0393 18.844-1.25 17.632-3.7818 26.438 11.312c8.805 15.094 16.351 32.711 40.25 33.969 23.899 1.2579 60.367-2.5238 56.594 6.2812-3.7734 8.805-23.899 2.5228-10.062 18.875 13.836 16.352 8.8197 17.617 27.687 23.906 18.868 6.2893 25.156 12.594 25.156 12.594s6.289 6.281 5.0313 11.312c-1.2581 5.0314-3.7809 8.8043-8.8126 20.125-5.0313 11.321-5.0312 31.438-5.0312 31.438s5.0153-16.359 12.562-18.875c7.5472-2.5157 13.844-2.5 13.844-2.5s10.07-1.2584 8.8126 15.094c-1.2581 16.352-5.0236 16.359-1.25 33.969 3.7734 17.61 3.7733 21.367 10.062 27.656 6.2893 6.2893-6.2897-7.5313 10.063-7.5313 16.352 0 7.5381 12.579 31.437 0 23.9-12.579 10.054-23.906 36.469-18.875 26.415 5.0314 35.219 7.5313 35.219 7.5313s13.844 6.2887 13.844 15.094c0 8.805 18.875-1.2341 18.875-8.7812 0-7.5472 12.563-11.335-7.5625-27.688-20.126-16.352-25.156-6.2727-30.188-27.656-5.0314-21.384 5.032-21.406-15.094-31.469s-62.898-6.2732-79.25-12.563c-16.352-6.2893-16.336-8.8042-22.625-20.125-6.2893-11.321-10.063-22.656-10.063-22.656s-3.7655 0.00039-6.2812-10.062c-2.5157-10.063-27.673-17.617 0-13.844 27.673 3.7736 13.828 3.7736 31.438 0s25.156-7.5312 25.156-7.5312-10.078-3.7732-7.5626-10.062c2.5157-6.2893-5.0241-0.0153 13.844-7.5625s8.8121-27.673 18.875-5.0312 16.367 30.211 22.656 31.469c6.2893 1.2579 8.7813-8.8125 8.7813-8.8125s13.851 6.2887 17.625 15.094c3.7736 8.805 16.344 17.594 16.344 17.594s-12.586-15.07 1.25-23.875 25.18-1.273 31.469-12.594c2.8775-5.1795 5.14-9.1449 6.8438-12.094 5.5707 9.5632 3.0872 3.5233 10.75 8.3125 10.063 6.2893 2.5076 2.5387 6.2812 11.344 2.2799 5.3197-1.8589 9.2438-5.5 11.531l5.5-2.75 15.094 12.594s3.7809 1.2496 8.8124 11.312c5.0315 10.063 1.25 10.062 1.25 10.062l21.406 3.7812s5.0152 13.828 17.594 16.344c12.579 2.5157 16.344 5.0544 16.344 11.344 0 6.2893 8.8125 15.094 8.8125 15.094s8.8124-2.5156 13.844-5.0313c5.0317-2.5157 5.039 0.0004 8.8126-10.062 3.7734-10.063-0.016-3.781 7.5312-8.8125 7.5472-5.0314 3.7884-0.008 22.656-3.7812 18.868-3.7736-1.2498-2.4996-6.2812-12.562-5.0315-10.063 21.367-0.00039 27.656 10.062 6.2893 10.063 8.8199 3.7736 17.625 0 8.8052-3.7736 5.0233-0.0238 11.313 8.7812 6.2891 8.805-3.7656 13.859-6.2813 21.406-2.5157 7.5471 15.07-1.2732 23.875-7.5625s7.5703-3.773 11.344-15.094c3.7736-11.321 8.7887-8.8046 22.625-10.062 13.836-1.2579 8.8126 7.5625 8.8126 7.5625s2.507-1.2734 21.375-2.5312c18.868-1.2579 16.368 15.094 2.5312 15.094-13.836 0-17.625 11.312-17.625 11.312s10.054-1.2579 16.344 0c6.2891 1.2579 5.0312 15.094 5.0312 15.094l-8.7812-1.25s-11.344 6.2967-16.375 8.8125c-5.0316 2.5157-22.625-6.2813-22.625-6.2813l-15.094-2.5312s-32.702 0.01-70.438-6.2813c-37.736-6.2893-39 7.5313-39 7.5313l26.406 10.062s-3.7572 12.601-22.625 16.375c-18.868 3.7735-12.577-2.5311-45.281-7.5625-32.704-5.0315-49.054 12.586-60.375 13.844-11.321 1.2579-33.969 1.25-33.969 1.25l15.094 16.344 10.062 6.3125s17.609 2.508 25.156-3.7813c7.5472-6.2893 1.2487-0.01 36.469-3.7812 35.22-3.7736 22.649 10.054 13.844 16.344-8.8053 6.2893-30.202 10.086-47.813 11.344-17.61 1.2578-18.866-2.539-45.281-6.3125-26.415-3.7736-8.7968 13.844-11.312 18.875-2.5158 5.0314-6.2813 2.5312-6.2813 2.5312l-2.5312 12.562s-12.57-1.25-31.438-1.25-10.062 2.5161-25.156-10.062c-15.094-12.579-12.594-17.625-12.594-17.625s-10.062 13.851-10.062 22.656-13.812 15.094-13.812 15.094 15.07 1.2575 23.875 10.062c8.8051 8.805 0.03 10.062 20.156 35.219s7.5312 17.625 7.5312 17.625-6.2893 1.2574 0 10.062c6.2893 8.805 42.765 11.305 50.312 7.5312 7.5471-3.7736 12.594-16.344 12.594-16.344s25.132 6.2889 44 10.062c18.868 3.7735 23.913 10.062 42.781 15.094 18.868 5.0314 36.469-20.125 36.469-20.125l-11.312-10.062s10.054-3.7811 16.344-8.8125c6.2893-5.0314 1.2653-10.054 8.8125-21.375s7.5386-6.2814 21.375-1.25-11.312 7.5313-11.312 7.5313 2.5143 8.7969 35.219 6.2812 10.062-8.8044 15.094-15.094c5.0315-6.2894 16.343 3.7887 41.5 12.594 25.157 8.805 23.921 1.2425 36.5-7.5625s11.304-16.336 27.656-27.656c16.352-11.321 0.015-18.89 7.5626-26.438 7.5471-7.5472 8.7969 13.851 11.312 32.719 2.5159 18.868 23.913 7.555 62.906-1.25 38.994-8.805 7.5236-20.125 3.75-30.188s-1.2338 3.7577-13.812 7.5313c-12.579 3.7735-13.852-13.842-7.5625-49.062 6.2893-35.22 11.312-2.5073 21.375-16.344 10.063-13.836-1.2344-5.0222 1.2813-36.469 2.5156-31.447 23.898-0.01 30.187 11.312 6.2893 11.321-10.078 21.382-12.594 35.219-2.5157 13.836 5.046 15.093 27.688 25.156s26.406-7.5541 36.469-23.906 12.586 1.2811 18.875 6.3125c6.2892 5.0314 21.382 6.2813 30.187 6.2813 8.8051 0 5.0313 10.062 5.0313 15.094 0 5.0314 2.5154 5.0385 10.062 18.875 4.2453 7.783 0.9236 11.985-1 13.5 0.5303-0.2488 1.2222-0.5521 2.25-0.9375 10.063-3.7736 15.094-3.7575 15.094-12.562 0-8.805-5.0313-22.656-5.0313-22.656s3.7654-6.2888 11.312-15.094c7.5472-8.805 1.2818-16.336-13.812-27.656-15.094-11.321-23.914-0.01-32.719 6.2812-8.8053 6.2893-16.343 7.5474-36.469-5.0312s5.0312-20.125 5.0312-20.125 10.063-11.335 10.063-27.688c0-16.352-8.8117-25.155-28.938-55.344s2.5233-13.836 8.8126-20.125c6.2891-6.2893 8.7812 6.2811 8.7812 11.312 0 5.0314 8.8121 10.078 18.875 12.594 10.063 2.5157 11.344 16.367 21.406 22.656 10.063 6.2893 11.313-0.00019 11.313 5.0312s-8.8123 8.8046-18.875 10.062c-10.063 1.2579-2.5317 15.077 2.5 32.688 5.0313 17.61 15.125 6.2812 15.125 6.2812l-2.5313-7.5312 11.312-16.344s20.148-0.015 26.438-2.5312c6.2894-2.5158 8.7804-2.4998 28.906-7.5313 20.126-5.0314 12.601 8.7807 16.375 23.875 3.7734 15.094 47.781 18.875 47.781 18.875l-17.594-10.062c-17.61-10.063-8.8045-22.648-10.062-28.938-1.2579-6.2893 16.336 11.328 22.625 3.7813 6.2892-7.5472 7.5624-5.0388 7.5624-13.844 0-8.805-3.7966-3.7569-11.344-27.656-7.5472-23.899 6.2889-0.0153 10.062-7.5625 3.7736-7.5472 17.633-10.062 11.344-10.062-6.2893 0-3.7733-3.7575-10.063-12.562-6.2891-8.805-12.578-0.007-25.156-13.844-12.579-13.836 0.0004-6.2805-10.062-26.406-10.063-20.126-6.2962-6.304-23.906-22.656s-23.906-17.594-23.906-17.594 2.5315 12.554-7.5312 18.844c-10.063 6.2893-0.01 11.328 1.25 23.906 1.2577 12.579-1.2497 13.851-11.313 27.688-10.063 13.836 1.2424 20.117-2.5312 31.438s-27.656 15.094-27.656 15.094l-11.344-7.5312s-12.586-7.554-13.844-23.906c-1.2579-16.352 1.2809-6.2885 6.3126-20.125 5.0313-13.836-23.898-30.203-45.281-42.781-21.384-12.579-13.844-5.0385-18.875-18.875-5.0315-13.836 33.953 1.2659 26.406-6.2812-7.5472-7.5472-2.5-16.344-2.5-16.344s11.312 8.7968 21.375 11.312c10.063 2.5157 21.367-7.5307 22.625-22.625 1.2577-15.094-7.5311-10.062-12.563-25.156-5.0315-15.094-5.0312-17.625-5.0312-17.625s-5.0467 6.2966-7.5625 13.844c-2.5157 7.5472 2.5313 12.562 2.5313 12.562s1.258 11.344-5.0313 16.375c-6.2893 5.0314-16.359 3.7581-33.969-2.5312s-6.297-21.367-3.7813-32.688 10.078-1.2653 22.656-8.8125 10.055-8.8125 1.25-8.8125c-8.8052 0-7.5309-3.773-17.594-15.094s-21.39-3.7891-28.938-2.5312c-7.5472 1.2579-15.094-3.75-15.094-3.75s-22.656-5.0389-32.719-8.8125-15.094-11.328-25.156-13.844c-10.063-2.5157-22.625 0.008-32.688 3.7812-10.063 3.7736-20.132-0.0157-33.969 2.5-13.836 2.5157-27.688 20.125-27.688 20.125s10.086 0.00019 16.375-5.0312c6.2893-5.0314 22.625 5.0312 22.625 5.0312l7.5625 3.7812s13.836-1.2653 20.125-8.8125c6.2893-7.5472 6.281-2.5 16.344-2.5s6.3045 6.281 7.5626 11.312c1.2579 5.0314 5.0069 10.07 28.906 18.875s16.351-8.82 25.156-17.625c8.8052-8.805 6.3047 3.7966 7.5626 11.344 1.2579 7.5472 8.8124 6.2812 8.8124 6.2812l3.75 12.594s-5.0149 17.586-22.625 8.7812c-17.61-8.805-42.781 1.2655-52.844 3.7812s-13.836-1.2571-20.125-20.125c-6.2894-18.868-18.874-5.0312-33.969-5.0312-15.094 0-16.351-2.5077-25.156-6.2812-8.8051-3.7736-25.132-0.008-33.938 6.2812-8.805 6.2893-15.117 2.5312-21.406 2.5312-6.2893 0-1.2579-11.327 0-28.938 1.2577-17.61 2.5316-17.624-7.5313-42.781s-15.101-5.0232-28.938-11.312c-13.836-6.2893-22.64-5.0238-35.219 3.7812-12.578 8.805 7.5626 7.5312 7.5626 7.5312s11.297 10.054 18.844 16.344c7.5472 6.2893-8.7813 21.406-8.7813 21.406l-8.8124 13.812s-8.7967-3.773-16.344-15.094c-7.5472-11.321-7.57-3.7655-16.375-6.2812-8.8051-2.5157-32.688 3.7812-32.688 3.7812s-15.094-13.851-15.094-22.656 23.875 0.0155 28.906 2.5312c5.0315 2.5157 23.906 12.562 23.906 12.562s6.297-22.625 3.7813-27.656c-2.5157-5.0314-20.125-8.8125-20.125-8.8125l-12.594 10.062-18.844-1.25s-1.2732-15.101-7.5625-23.906-17.601-13.836-26.406-20.125c-2.2011-1.5723-3.6322-2.2117-4.9687-2.0938-4.0094 0.35377-7.3018 7.4469-29 15.938-28.931 11.321-15.085 1.2498-36.469 6.2812s6.2887 18.883 15.094 22.656c8.805 3.7736 17.594 2.5 17.594 2.5l-3.75 13.844s-0.016 3.7809 17.594 13.844 1.2579 11.32-5.0312 20.125c-6.2893 8.805-12.562 6.2736-32.688 2.5-7.2401-1.3575-11.372 0.70938-13.719 3.9062-0.041-0.0422-0.083-0.0831-0.125-0.125-7.5472-7.5472 20.118-21.375-13.844-21.375s-26.414 11.305-40.25 2.5-7.5462-11.305-25.156-7.5312c-17.61 3.7736-10.077 16.328-32.719 8.7812-22.642-7.5472-7.5227-1.2496-28.906-11.312-21.384-10.063-18.874-6.2966-44.031-13.844-25.157-7.5472-36.476 13.852-45.281 7.5625-8.805-6.2893-1.273-6.2964-12.594-18.875s3.7742-12.578-15.094-15.094c-18.868-2.5157-36.469-7.5312-36.469-7.5312s7.547 3.7647 0 26.406c-7.5472 22.642-17.602 18.874-16.344 33.969 1.2578 15.094-26.438 12.555-26.438-1.2812s8.8129-7.5385-1.25-21.375-13.828-10.054-16.344-16.344c-2.5157-6.2893-7.5552-35.219 6.2812-25.156s13.844 16.344 13.844 16.344 23.891-13.82 6.2812-22.625-66.648-33.97-62.875-8.8125c3.7736 25.157 20.102 23.898 13.812 30.188-6.2893 6.2893-3.7575 6.2734-12.562 7.5312-6.2663 0.89519-12.47 3.7061-15.562 5.25 1.5104 1.9574 3.9705 5.969 8 13.625 12.579 23.899 36.5 31.438 36.5 31.438s8.7818 12.586-6.3125 13.844c-15.094 1.2579-30.187 1.281-35.219 6.3125-5.0315 5.0314-26.39 7.5238-28.906-1.2812-2.5158-8.805-15.116-25.141-31.469-27.656-16.352-2.5157-25.148-15.118-31.437-1.2812-6.2893 13.836-36.484 20.149-33.969 6.3125 2.5157-13.836 6.2971-21.406-1.25-26.438-7.5472-5.0314-21.382-11.312-35.219-11.312-13.836 0-30.203 5.024-27.687-8.8125 2.5155-13.836 17.633-22.64 1.2812-30.188-16.352-7.5472-32.711-3.7653-33.969-11.312-1.2579-7.5472-2.5312-23.906-2.5312-23.906l-7.5312-12.562 3.7812-7.5625s-7.5699-1.2427-21.406 12.594c-13.836 13.836-37.743 17.609-18.875 35.219s30.195 10.062 33.969 20.125c3.7735 10.063-2.5 12.562-2.5 12.562s15.086 1.2651 21.375 13.844c6.2893 12.579 10.07 13.851 3.7813 22.656-6.2893 8.805-12.578 11.296-10.063 23.875 2.5157 12.579-5.0312 26.438-5.0312 26.438l-2.5312 15.094s22.65 15.086-11.313 1.25c-33.962-13.836-33.968-10.047-44.031-7.5312-10.063 2.5157-35.203 8.7974-37.719-3.7812-2.5155-12.579 3.7503-16.344-6.3124-16.344s-38.969 3.7659-44-3.7812c-5.0317-7.5472-36.5-27.688-36.5-27.688s-21.375-10.047-26.406-7.5312c-5.0315 2.5157-1.266-7.5625 6.2813-7.5625 7.5471 0 30.187-12.562 30.187-12.562s1.2653-7.571 8.8126 8.7812c7.547 16.352 33.976 27.696 42.781 16.375s27.664-28.945 31.438-37.75c3.7736-8.805 25.149-30.187 6.2813-45.281s-52.836-23.883-54.094-7.5312c-1.2579 16.352 0.01 6.273 8.8125 17.594 8.8051 11.321 18.883 12.593 7.5625 22.656-11.321 10.063-8.8196 13.821-27.688 7.5312-18.868-6.2893-41.515-7.5393-49.062-1.25-7.5471 6.2893-44.024 8.7887-40.25 17.594 3.7736 8.805 16.36 17.609 8.8125 20.125-7.5472 2.5157-26.421 3.7816-44.031-6.2812s-80.509 1.2663-59.125-16.344 17.632-20.117 36.5-21.375c16.878-1.1252 43.573-9.9204 49.281-11.844-4.079 1.1163-13.375 2.6273-25.406-2-16.352-6.2893-3.7569-23.907-27.656-8.8125s-17.625 15.093-27.688 25.156-31.43 23.915-32.688 12.594c-1.2579-11.321-7.5471-21.39-5.0312-28.938 2.5155-7.5472-0.015-35.212-17.625-11.312-17.61 23.899-21.375 37.719-21.375 37.719l-16.344 6.2812s-35.242 3.7893-36.5-2.5c-1.058-5.2899-40.865-12.292-49.875-13.656 3.5308-0.0912-0.5687-4.9188-1.6875-12.75-1.2578-8.805 27.689-10.062-7.5313-10.062s-57.859 3.75-75.469 3.75-61.664-3.7738-75.5 5.0312-25.156 16.375-25.156 16.375h31.469c25.157 0 8.7803 3.7659 33.938-3.7812 25.157-7.5472 62.906-16.352 72.969-15.094 10.063 1.2579 27.673 16.336 10.063 17.594-17.61 1.2579-27.656 8.8125-27.656 8.8125s8.7807 3.7887 23.875 12.594c15.094 8.805 7.5616 10.039 32.719 8.7812 25.157-1.2579 33.952-8.7816 61.625 1.2812s44.024 7.5464 30.188 20.125c-13.837 12.579-26.422 20.102-39 13.812-12.579-6.2893-7.5313-15.094-7.5313-15.094s-20.132-2.5081-28.938 3.7812c-8.805 6.2893-25.164 5.0393-39-1.25s-31.429-8.82-37.719-17.625c-3.2853-4.5995-5.7981-8.0142-7.5312-10.375-0.1102 1.8663-2.0515 4.4945-8.8125 7.875-15.094 7.5472-11.35 17.61-50.344 5.0312s-18.858-10.062-56.594-20.125-55.351-15.086-69.188-11.312c-13.836 3.7736-47.781 0.00019-52.812-5.0312-5.0314-5.0314 17.603-2.5387-18.875-11.344-36.478-8.805-51.562-8.7812-61.625-8.7812-1.2924 0-2.1356 0.0401-2.6562 0.0937 0.3632-0.52523-0.8298-2.1413-11.188-6.4062-21.383-8.805-22.648-10.039-33.969-8.7812-11.321 1.2579-13.843 11.297-28.938 13.812-15.094 2.5157-41.5-5.0312-41.5-5.0312l-11.312 8.8125-44.031-10.062s1.266-1.2423-6.2812 2.5312c-7.5472 3.7736-15.109 7.5393-17.625 1.25-2.5157-6.2893 18.86-8.8202-8.8125-12.594-27.673-3.7736-32.679-7.5234-54.062-8.7812-21.384-1.2579-23.906 12.555-39-1.2812s-16.374-25.141-31.469-22.625c-15.094 2.5157-10.062-10.062-10.062-10.062s7.5635-2.5236-17.594 1.25c-25.157 3.7736-36.476 2.5312-50.312 2.5312h-26.406l-35.64-2.46s-17.632-12.563-26.438-7.5312c-8.805 5.0314-11.328 8.7968-23.906 11.312-12.579 2.5157-18.852 2.5002-17.594-2.5312 1.2579-5.0314 7.5312-12.562 7.5312-12.562s-2.5151-21.383-15.094-5.0312-5.023 22.633-16.344 21.375c-11.321-1.2579-36.475-13.82-70.438-12.562-33.962 1.2579-84.065 1.1318-102.93 2.3897-18.868 1.2579-92.953-8.6124-113.08-9.8703-1.2579-0.0786-17.616 2.2931-25.082-1.5035-1.5091-0.76739-24.549-2.6699-23.085-1.1592zm1205.4 109.17c0.1358-2.3004-2.5312-3.4375-2.5312-3.4375s0.9465 1.2789 2.5312 3.4375zm807.1-9.53c-3.2046-4.153-2.0625 1.0625-2.0625 1.0625s0.8096-0.437 2.0625-1.0625zm452.81 227.69-4.5625 2.2812s2.1769-0.78257 4.5625-2.2812zm-1513-31.281c-6.9362 0.21822-3.9669 5.5107 0 0zm591.47-228.06s-1.49 0.50453-2.0313 0.6875c1.3168-0.37343 2.0313-0.6875 2.0313-0.6875zm1126.6 117.9s-8.0241 1.7763-2.6875 9.7812c5.3367 8.005 4.4614-3.5457 10.688-2.6562 6.2261 0.88945 10.668-1.7862 8 6.2188-2.6683 8.005-10.673 7.1153-11.562 11.562-0.8895 4.4472-0.9063 13.344-0.9063 13.344s-0.8845-8.9089-8 0.875c-7.1156 9.7839-12.437 16.031-12.437 16.031l-1.8 17.78-4.4375 4.4375s-8.9184-7.1176-6.25-13.344c2.6683-6.2261 5.3366-8.8965 0-13.344-5.3367-4.4472-15.986-13.334-16.875-6.2188-0.8895 7.1155-21.375 1.7812-21.375 1.7812l9.8125-10.656-4.4687-7.125 7.125-12.469s-0.8992-2.6539 4.4374-0.875c5.3368 1.7789 3.5696 3.5504 8.9063 6.2188 5.3366 2.6683 12.438 5.3438 12.438 5.3438l-3.5625 7.125s6.2523-5.3364 8.0313-11.562c1.7788-6.2261-2.6804-10.695 2.6562-16.031 5.3367-5.3366 9.7812-4.4375 9.7812-4.4375zm130.72 60.469s-0.8774 7.1321-2.6563 12.469c-1.7789 5.3366-7.995 2.6731-16 3.5625-8.005 0.88944-10.688 6.2188-10.688 6.2188s0.9062-7.1176 0.9062-13.344c0-6.2261 12.438-5.3438 12.438-5.3438zm-191.22 3.5625s0.8989 0.0192 7.125 2.6875 5.3292 9.7786 6.2188 19.562c0.8894 9.7839 7.1298 1.7836 10.687 3.5625 3.558 1.7789 0.875 9.7812 0.875 9.7812l17.781 13.344s-14.219 5.3222-25.781 0.875c-11.563-4.4472-7.132-5.3438-12.469-5.3438-2.4641 0-2.6359 1.7253-2.125 3.5625 1.1839 2.5766 2.125 4.4688 2.125 4.4688s-1.5294-2.3269-2.125-4.4688c-2.0979-4.5658-4.9687-11.376-4.9687-14.219 0-4.4472-2.6778-7.995-7.125-16-4.4474-8.005-11.563-16.031-11.563-16.031zm267.5 37.781c5.2593-0.009 11.063 0.59674 15.344 1.375 9.7838 1.7789 5.3485 0.86766 8.9062 7.0938 3.5578 6.2261 11.562 8 11.562 8s-8.9134 0.89181-14.25 1.7812c-5.3367 0.88944-3.5625 16.031-3.5625 16.031s-1.7524-7.1297-3.5312-10.688c-1.779-3.5578-8.0071-2.6754-13.344-5.3438-5.3366-2.6683-4.4688-7.0938-4.4688-7.0938s-10.671-1.7883-9.7812-7.125c0.5003-3.0019 6.363-4.0195 13.125-4.0312zm-966.38 112.38 11.344 2.5s7.5312 1.2498 7.5312 6.2813c0 5.0314 20.117 13.844 31.438 13.844h10.094s-7.5779 12.594-10.094 17.625c-2.5157 5.0315 1.2813 6.2813 1.2813 6.2813s-7.5624-1.25-12.594-1.25c-5.0315 0-16.336-1.2575-27.656-10.062-11.321-8.8051-6.2881-1.2813-30.188-1.2813-23.899 0-8.8124-10.062-8.8124-10.062l17.594-5.0312 3.7813-10.062zm645.91 100.16c2.5006-0.1151 8.1106 0.2944 20.063 1.4062 38.246 3.5578 29.348 0.8868 44.469 9.7813 15.121 8.8944 7.1103 7.1129 19.562 9.7812s12.474 9.7813 4.4688 9.7813-17.813 2.6922-17.813 6.25v8s-4.4349 5.3342-14.219-1.7813c-9.7839-7.1155-4.4373-9.7789-16-8s-16.906 6.2188-16.906 6.2188-16.901 7.1176-13.344 13.344c3.5578 6.2261 8.8823 8.8774 2.6563 10.656-6.2262 1.7788-18.663 3.5625-24 3.5625-5.3368 0-14.25 5.3437-14.25 5.3437s14.233 17.791 1.7812 13.344c-12.452-4.4473-14.228-9.7981-32.906-10.688-18.678-0.8895-29.351 1.8054-34.688-3.5313-5.3366-5.3367-19.56-13.361-6.2187-14.25 13.342-0.8894 10.673 0.017 23.125 0.9063 12.452 0.8894 19.562-0.9063 19.562-0.9063l8.9062-4.4375s9.781-0.9062 21.344-0.9062 22.219-1.7813 22.219-1.7813l10.687-8s-6.2184 1.7933-17.781-0.875-17.786-3.5649-21.344-5.3437c-3.5578-1.7789-16.024-6.2403 0.875-10.688 16.9-4.4473 25.813-8.875 25.813-8.875s-16.012-6.2259-1.7813-11.562c9.7839-3.669 0.2178-6.4969 5.7187-6.75zm429.81 24.062c-1.678 0.7921-1.1151 0.8656 0 0z" sodipodi:nodetypes="ccccsssssscssssssssssscsssssssssssscssssssccccsssscsssscsscscsccsscscssccssssccccsccsssccccccsssscscccsssssscsssssssccssccsscscscscscssccscccsssccsssssssccscssssssccccccssssccccccssscssscssscsscssccssscsccscsssssssssssssssscsccsssscccsssccssssscccssssssssccscccscssssscssssccccssccsccsscscccsccssccssssccscccccsscccssscssssssccscscccssssscsssssssccscsscsssssccccsccssscsscccsssscssscssccccsccccssscssssssscsssccssscscsscsscccsccsscccssscscsscscsscsccsccsccsssccccscsscccsscscsscsscssccssscsssssscsssssssssssssscsscsscscsscsssssccccsscccsssssscssscscssccscssscscscccssssssscsssscsccsscsssccssssssscssccsccsscsscscccscssssccscsccssssssssscsssscscsssscscsscscssscsscccssscscsccsscsccssccssssssssssssscsssscscccccssscsssscssssscssccssssssscssscccsssssscssccssscsssssssccccccccccccccccscccsccccsccccccscccsccccscscccsccccsscccscccscscsccscsscssscccsssccccscsssscssccsscsscssccsccscscssccc" style="fill:#ffffff" inkscape:connector-curvature="0"/>
  </g>
  <metadata>
    <rdf:RDF>
      <cc:Work>
        <dc:format>image/svg+xml</dc:format>
        <dc:type rdf:resource="http://purl.org/dc/dcmitype/StillImage"/>
        <cc:license rdf:resource="http://creativecommons.org/licenses/publicdomain/"/>
        <dc:publisher>
          <cc:Agent rdf:about="http://openclipart.org/">
            <dc:title>Openclipart</dc:title>
          </cc:Agent>
        </dc:publisher>
      </cc:Work>
      <cc:License rdf:about="http://creativecommons.org/licenses/publicdomain/">
        <cc:permits rdf:resource="http://creativecommons.org/ns#Reproduction"/>
        <cc:permits rdf:resource="http://creativecommons.org/ns#Distribution"/>
        <cc:permits rdf:resource="http://creativecommons.org/ns#DerivativeWorks"/>
      </cc:License>
    </rdf:RDF>
  </metadata>
</svg>
